<svg xmlns="http://www.w3.org/2000/svg" aria-hidden="true" style="position:absolute;width:0;height:0;overflow:hidden"><defs><symbol id="icon-online" viewBox="0 0 34 32"><path fill="#eaf6ff" d="M32.155 31.248H1.559a1.065 1.065 0 0 1-1.065-1.065V4.717H33.22v25.466c0 .588-.477 1.065-1.065 1.065z" style="fill:var(--color1, #eaf6ff)"/><path fill="#d8ecfe" d="M33.221 4.716v25.466a1.066 1.066 0 0 1-1.066 1.066h-1.318a1.066 1.066 0 0 0 1.066-1.066V4.716h1.318z" style="fill:var(--color2, #d8ecfe)"/><path fill="#fd9468" d="M33.22 4.716H.494V1.662c0-.588.477-1.065 1.065-1.065h30.596c.588 0 1.065.477 1.065 1.065v3.054z" style="fill:var(--color3, #fd9468)"/><path fill="#fe7d43" d="M33.221 1.662v3.054h-1.318V1.662c0-.589-.478-1.065-1.066-1.065h1.318c.589 0 1.066.477 1.066 1.065z" style="fill:var(--color4, #fe7d43)"/><path fill="#8d9ca8" d="M30.139 9.076H10.686a.557.557 0 0 1-.556-.556V7.275a.557.557 0 0 1 .556-.556h19.453c.307 0 .556.249.556.556V8.52a.556.556 0 0 1-.556.556z" style="fill:var(--color5, #8d9ca8)"/><path fill="#7a8c98" d="M30.694 7.275V8.52a.553.553 0 0 1-.556.556H28.82a.553.553 0 0 0 .556-.556V7.275a.553.553 0 0 0-.556-.556h1.318a.553.553 0 0 1 .556.556z" style="fill:var(--color6, #7a8c98)"/><path fill="#f0f5f7" d="M29.317 22.231H11.509a.382.382 0 0 1-.382-.382V9.075h18.57v12.773c0 .21-.17.382-.38.383z" style="fill:var(--color7, #f0f5f7)"/><path fill="#dde4e8" d="M29.699 9.075v12.774a.382.382 0 0 1-.383.383h-1.318a.382.382 0 0 0 .383-.383V9.075h1.318z" style="fill:var(--color8, #dde4e8)"/><path fill="#5de1c4" d="M22.97 15.983a4.265 4.265 0 0 1-8.527-.139 4.266 4.266 0 0 1 4.058-4.33.198.198 0 0 1 .207.198v3.866c0 .109.088.198.198.198h3.866a.197.197 0 0 1 .198.207h.001z" style="fill:var(--color9, #5de1c4)"/><path fill="#0ed2b3" d="M22.97 15.986a4.266 4.266 0 0 1-4.462 4.054 4.213 4.213 0 0 1-2.129-.693 4.267 4.267 0 0 0 5.355-3.569h1.04c.054 0 .105.023.142.062s.057.092.054.145z" style="fill:var(--color10, #0ed2b3)"/><path fill="#fd9468" d="M23.4 14.03a2.976 2.976 0 0 0-2.759-2.758.197.197 0 0 0-.21.197v2.573c0 .109.088.198.198.198h2.573a.197.197 0 0 0 .197-.21z" style="fill:var(--color3, #fd9468)"/><path fill="#fe7d43" d="M23.4 14.03a.198.198 0 0 1-.199.21h-1.067a.228.228 0 0 0 .005-.058 2.976 2.976 0 0 0-1.709-2.487v-.226a.197.197 0 0 1 .21-.197 2.977 2.977 0 0 1 2.759 2.758z" style="fill:var(--color4, #fe7d43)"/><path fill="#c86d36" d="M12.132 17.289v7.698a2.9 2.9 0 0 1-2.899 2.899H5.922a2.9 2.9 0 0 1-2.899-2.899v-7.698l4.556-3.465 4.554 3.465z" style="fill:var(--color11, #c86d36)"/><path fill="#ac5e2e" d="M12.132 17.289v7.696a2.902 2.902 0 0 1-2.899 2.899H7.915a2.898 2.898 0 0 0 2.899-2.899v-8.698l1.318 1.002z" style="fill:var(--color12, #ac5e2e)"/><path fill="#c2a1d5" d="M12.054 31.248H3.1v-2.499a4.477 4.477 0 0 1 8.954 0v2.499z" style="fill:var(--color13, #c2a1d5)"/><path fill="#b289c9" d="M12.053 28.749v2.498h-1.405v-2.498a4.48 4.48 0 0 0-3.776-4.423 4.477 4.477 0 0 1 5.179 4.423h.001z" style="fill:var(--color14, #b289c9)"/><path fill="#ffa78f" d="M7.577 25.726a1.038 1.038 0 0 1-1.039-1.039v-1.881h2.079v1.881a1.038 1.038 0 0 1-1.039 1.04z" style="fill:var(--color15, #ffa78f)"/><path fill="#ffcebf" d="M7.576 23.58a4.284 4.284 0 0 1-4.284-4.284v-4.284h8.567v4.284a4.284 4.284 0 0 1-4.284 4.284z" style="fill:var(--color16, #ffcebf)"/><path fill="#ffb09e" d="M11.86 15.013v4.284a4.287 4.287 0 0 1-4.806 4.253 4.284 4.284 0 0 0 3.761-4.253v-4.284h1.045z" style="fill:var(--color17, #ffb09e)"/><path fill="#d77f4a" d="M7.84 12.245h-.527a4.293 4.293 0 0 0-4.293 4.293v1.457c3.247-.472 4.026-1.399 4.556-2.78.53 1.381 1.309 2.307 4.556 2.78v-1.457a4.293 4.293 0 0 0-4.293-4.293z" style="fill:var(--color18, #d77f4a)"/><path fill="#c86d36" d="M12.132 16.538v1.457c-.494-.072-.93-.154-1.318-.247v-1.21a4.292 4.292 0 0 0-3.899-4.274c.13-.013.263-.019.396-.018h.528a4.292 4.292 0 0 1 4.292 4.292z" style="fill:var(--color11, #c86d36)"/><path d="M3.251 2.049a.658.658 0 1 1-.504 1.216.658.658 0 0 1 .504-1.216zM5.979 2.656a.659.659 0 1 1-1.318 0 .659.659 0 0 1 1.318 0zM8.302 2.656a.659.659 0 1 1-1.318 0 .659.659 0 0 1 1.318 0zM18.705 20.536a5.48 5.48 0 0 1-.222-.005l.001-.002a4.76 4.76 0 0 1-.007-9.507.693.693 0 0 1 .724.691v3.57h3.569a.693.693 0 0 1 .691.724 4.769 4.769 0 0 1-4.757 4.529zm-.491-4.958v-3.543a3.772 3.772 0 0 0 .329 7.509 3.772 3.772 0 0 0 3.905-3.275h-3.543a.693.693 0 0 1-.691-.691z" style="fill:var(--color19, #000)"/><path d="M23.199 14.733h-2.573a.692.692 0 0 1-.691-.692v-2.572a.688.688 0 0 1 .738-.69 3.48 3.48 0 0 1 3.217 3.217.691.691 0 0 1-.691.738zm-.339-.987a2.495 2.495 0 0 0-1.939-1.939v1.939h1.939zM23.703 18.552c0 .273.221.494.494.494h3.067a.494.494 0 1 0 0-.988H24.2a.495.495 0 0 0-.497.495zM27.264 19.549h-3.067a.494.494 0 1 0 0 .988h3.067a.494.494 0 1 0 0-.988z" style="fill:var(--color19, #000)"/><path d="M32.155.103H1.56A1.562 1.562 0 0 0 0 1.663v28.522a1.562 1.562 0 0 0 1.56 1.56h30.595a1.558 1.558 0 0 0 1.559-1.562V1.661a1.562 1.562 0 0 0-1.56-1.56v.003zM11.638 24.984c0 .252-.04.502-.119.742a4.994 4.994 0 0 0-2.41-1.707v-.202a4.807 4.807 0 0 0 2.529-2.014v3.178l-.001.003zm-7.853-5.689v-.927a7.206 7.206 0 0 0 2.814-1.018c.39-.269.723-.614.977-1.015.617.975 1.634 1.632 3.791 2.033v.928a3.794 3.794 0 0 1-3.79 3.79l-.001-.002a3.794 3.794 0 0 1-3.79-3.79zm4.336 4.746v.644a.546.546 0 1 1-1.09 0v-.644a4.74 4.74 0 0 0 1.091 0zm-2.079-.019a4.922 4.922 0 0 0-2.411 1.703 2.394 2.394 0 0 1-.118-.742v-3.177a4.802 4.802 0 0 0 2.529 2.014v.201zm5.597-6.608c-2.669-.478-3.186-1.295-3.601-2.377a.494.494 0 0 0-.922 0c-.415 1.079-.932 1.899-3.601 2.377v-.877a3.803 3.803 0 0 1 3.799-3.799h.527a3.803 3.803 0 0 1 3.799 3.799v.877zm-.02-7.844h17.586v12.168H12.626v-5.199a4.764 4.764 0 0 0-1.007-2.932V9.571zm21.105 20.611a.573.573 0 0 1-.572.572H12.546v-2.004a4.936 4.936 0 0 0-.419-1.996 3.374 3.374 0 0 0 .498-1.768v-2.26h16.691a.877.877 0 0 0 .877-.877V9.566a1.05 1.05 0 0 0 .995-1.046V7.277a1.05 1.05 0 0 0-1.048-1.052H16.022a.494.494 0 1 0 0 .988H30.14a.06.06 0 0 1 .061.061v1.245a.06.06 0 0 1-.061.061H10.686a.06.06 0 0 1-.061-.061V7.277a.06.06 0 0 1 .061-.061h3.053a.494.494 0 1 0 0-.988h-3.053a1.05 1.05 0 0 0-1.049 1.049v1.245c.001.558.438 1.018.995 1.046v3.088a4.757 4.757 0 0 0-2.792-.902h-.527a4.791 4.791 0 0 0-4.787 4.787v8.444a3.368 3.368 0 0 0 .498 1.767c-.128.289-.227.59-.297.899a.493.493 0 1 0 .963.217 3.996 3.996 0 0 1 2.397-2.816 1.534 1.534 0 0 0 2.976 0 3.988 3.988 0 0 1 2.495 3.693v2.005H3.593v-.676a.494.494 0 1 0-.988 0v.679H1.559a.573.573 0 0 1-.572-.572V5.209h31.739l-.002 24.972zM.988 4.221V1.659c0-.316.256-.571.572-.572h30.595c.316 0 .571.256.572.572l-.002 2.562H.988z" style="fill:var(--color19, #000)"/><path d="M6.048 18.247a.494.494 0 0 0-.494.494v.841a.494.494 0 1 0 .988 0v-.841a.491.491 0 0 0-.494-.493zM9.104 18.247a.494.494 0 0 0-.494.494v.841a.494.494 0 1 0 .988 0v-.841a.491.491 0 0 0-.495-.493zM8.824 28.721H9.85a.494.494 0 1 0 0-.988H8.824a.494.494 0 1 0 0 .988z" style="fill:var(--color19, #000)"/></symbol><symbol id="icon-steps" viewBox="0 0 31 32"><path fill="#fee55a" d="M27.129 1.159H7.132a4.493 4.493 0 0 1 0 7.768h19.997a3.884 3.884 0 1 0 0-7.768z" style="fill:var(--color20, #fee55a)"/><path fill="#ffd301" d="M13.073 5.043c0-1.6-.851-3.08-2.234-3.884H7.132a4.493 4.493 0 0 1 0 7.768h3.707a4.493 4.493 0 0 0 2.234-3.884z" style="fill:var(--color21, #ffd301)"/><path fill="#ff9838" d="M4.443 11.95H24.44a4.493 4.493 0 0 0 0 7.768H4.443a3.884 3.884 0 0 1 0-7.768z" style="fill:var(--color22, #ff9838)"/><path fill="#ff8706" d="M4.266 15.833a3.884 3.884 0 0 1 3.884-3.884H4.442a3.884 3.884 0 1 0 0 7.768h3.707a3.883 3.883 0 0 1-3.883-3.884z" style="fill:var(--color23, #ff8706)"/><path fill="#ff656f" d="M27.129 22.741H7.132a4.493 4.493 0 0 1 0 7.768h19.997a3.884 3.884 0 0 0 0-7.768z" style="fill:var(--color24, #ff656f)"/><path fill="#ff4756" d="M13.073 26.625c0-1.6-.85-3.079-2.233-3.884H7.133a4.493 4.493 0 0 1 0 7.768h3.707a4.491 4.491 0 0 0 2.233-3.884z" style="fill:var(--color25, #ff4756)"/><path fill="#dfebfa" d="M9.55 5.043a4.495 4.495 0 1 1-8.99 0 4.495 4.495 0 0 1 8.99 0zM31.013 15.834a4.494 4.494 0 1 1-8.99 0 4.494 4.494 0 1 1 8.99 0zM9.55 26.626a4.495 4.495 0 1 1-8.99 0 4.495 4.495 0 0 1 8.99 0z" style="fill:var(--color26, #dfebfa)"/><path fill="#b1dbfc" d="M2.929 5.043A4.497 4.497 0 0 1 6.239.704a4.495 4.495 0 1 0 0 8.673 4.495 4.495 0 0 1-3.31-4.333zM24.392 15.834a4.496 4.496 0 0 1 3.31-4.336 4.495 4.495 0 1 0 0 8.673 4.494 4.494 0 0 1-3.31-4.336zM2.929 26.626a4.496 4.496 0 0 1 3.31-4.336 4.495 4.495 0 1 0 0 8.673 4.494 4.494 0 0 1-3.31-4.336z" style="fill:var(--color27, #b1dbfc)"/><path d="M7.42 9.383a4.917 4.917 0 0 1-2.381.611 4.959 4.959 0 0 1-3.252-8.709A4.956 4.956 0 0 1 7.419.696h8.237a.46.46 0 0 1 0 .92H8.615a4.947 4.947 0 0 1 0 6.849h18.497a3.424 3.424 0 0 0 0-6.848H17.8a.46.46 0 0 1 0-.92h9.312a4.343 4.343 0 0 1 0 8.687H7.418zm1.655-4.344A4.035 4.035 0 0 0 5.04 1.005a4.042 4.042 0 0 0-4.035 4.038 4.036 4.036 0 0 0 8.071-.003zM5.039 31.577a4.92 4.92 0 0 0 2.381-.611h19.694a4.345 4.345 0 0 0 0-8.688H7.42a4.958 4.958 0 0 0-7.036 6.075 4.957 4.957 0 0 0 4.656 3.223zm22.075-8.379a3.424 3.424 0 0 1 0 6.848H8.617a4.947 4.947 0 0 0 0-6.849h18.497zM9.075 26.622a4.035 4.035 0 1 1-8.07 0 4.042 4.042 0 0 1 4.035-4.035 4.035 4.035 0 0 1 4.035 4.035z" style="fill:var(--color19, #000)"/><path d="M4.63 4.001v2.803a.46.46 0 0 0 .92 0v-3.53a.459.459 0 0 0-.659-.413l-.592.286c-.218.103-.319.357-.231.581s.333.343.563.273zM25.092 17.295a.46.46 0 0 0 .334.776h2.156a.46.46 0 0 0 0-.92h-1.089l.944-.998c.311-.33.47-.775.439-1.227a1.469 1.469 0 0 0-.555-1.035 1.387 1.387 0 0 0-1.168-.269 1.684 1.684 0 0 0-1.134.847.46.46 0 0 0 .81.434.763.763 0 0 1 .508-.38.481.481 0 0 1 .408.086.55.55 0 0 1 .213.392.727.727 0 0 1-.203.534l-1.664 1.761zM5.38 27.943h-.921a.46.46 0 0 0 0 .92h.92a2.41 2.41 0 0 0 0-4.48h-.92a.46.46 0 0 0 0 .92h.92a.43.43 0 1 1 0 .86h-.92a.46.46 0 0 0 0 .92h.92a.43.43 0 1 1 0 .86h.001z" style="fill:var(--color19, #000)"/><path d="m24.123 20.175-19.694.003a4.344 4.344 0 0 1 0-8.688h19.694a4.955 4.955 0 0 1 7.192 3.162.46.46 0 0 1-.893.219 4.035 4.035 0 1 0 0 1.926.459.459 0 1 1 .893.219 4.951 4.951 0 0 1-7.192 3.16zm-1.197-7.768H4.429a3.424 3.424 0 0 0 0 6.848h18.497a4.947 4.947 0 0 1 0-6.849zM12.104 25.303h5.605a.46.46 0 0 0 0-.92h-5.605a.46.46 0 0 0 0 .92zM12.104 27.106H24.24a.46.46 0 0 0 0-.92H12.104a.46.46 0 0 0 0 .92zM12.104 28.91H24.24a.46.46 0 0 0 0-.92H12.104a.46.46 0 0 0 0 .92zM17.71 2.752h-5.605a.46.46 0 0 0 0 .92h5.605a.46.46 0 0 0 0-.92zM24.24 4.556H12.104a.46.46 0 0 0 0 .92H24.24a.46.46 0 0 0 0-.92zM24.24 6.36H12.104a.46.46 0 0 0 0 .92H24.24a.46.46 0 0 0 0-.92z" style="fill:var(--color19, #000)"/><path d="M6.324 14.488h5.605a.46.46 0 0 0 0-.92H6.324a.46.46 0 0 0 0 .92zM6.324 16.291h12.137a.46.46 0 0 0 0-.92H6.324a.46.46 0 0 0 0 .92zM6.324 18.094h12.137a.46.46 0 0 0 0-.92H6.324a.46.46 0 0 0 0 .92z" style="fill:var(--color19, #000)"/></symbol><symbol id="icon-certificate" viewBox="0 0 25 32"><path fill="#ee6161" d="m19.083 26.712-2.949-1.203-1.882 4.616a.277.277 0 0 0 .288.379l1.191-.141a.277.277 0 0 1 .248.101l.752.932a.278.278 0 0 0 .472-.069l1.88-4.615zM19.324 26.712l2.949-1.203 1.882 4.616a.277.277 0 0 1-.288.379l-1.191-.141a.277.277 0 0 0-.248.101l-.752.932a.278.278 0 0 1-.472-.069l-1.88-4.615z" style="fill:var(--color28, #ee6161)"/><path fill="#e94444" d="m19.082 26.712-1.881 4.615c-.037.091-.119.155-.216.169s-.194-.024-.256-.1l-.556-.689 1.812-4.443 1.098.448zM23.867 30.503l-1.005-.119a.049.049 0 0 0-.004-.011l-1.786-4.376 1.2-.487 1.882 4.615c.036.09.022.193-.036.27s-.154.118-.25.108z" style="fill:var(--color29, #e94444)"/><path fill="#60b7ff" d="M20.369 26.466H1.424a.892.892 0 0 1-.892-.892V1.36c0-.493.399-.892.892-.892h18.945c.493 0 .892.399.892.892v24.214a.894.894 0 0 1-.892.892z" style="fill:var(--color30, #60b7ff)"/><path fill="#26a6fe" d="M21.261 1.36v24.214a.892.892 0 0 1-.892.892h-1.302a.894.894 0 0 0 .892-.892V1.36a.892.892 0 0 0-.892-.892h1.302a.892.892 0 0 1 .892.892z" style="fill:var(--color31, #26a6fe)"/><path fill="#f9f7f8" d="M15.847 2.702h-9.9a.54.54 0 0 0-.537.477 2.5 2.5 0 0 1-1.866 2.312.541.541 0 0 0-.406.524v14.903c0 .247.167.462.406.524a2.502 2.502 0 0 1 1.866 2.312.54.54 0 0 0 .537.477h9.9a.54.54 0 0 0 .537-.477 2.5 2.5 0 0 1 1.866-2.312.541.541 0 0 0 .406-.524V6.015a.541.541 0 0 0-.406-.524 2.502 2.502 0 0 1-1.866-2.312.54.54 0 0 0-.537-.477z" style="fill:var(--color32, #f9f7f8)"/><path fill="#efedef" d="M18.656 6.015v14.903a.537.537 0 0 1-.406.523 2.44 2.44 0 0 0-.896.419V7.285a.613.613 0 0 0-.406-.524c-1.804-.891-1.982-2.886-2.057-3.584a.54.54 0 0 0-.537-.477h1.495a.54.54 0 0 1 .537.477 2.5 2.5 0 0 0 1.866 2.312.541.541 0 0 1 .404.524z" style="fill:var(--color33, #efedef)"/><path fill="#fe9738" d="M24.161 23.641c0 .62-.862 1.064-1.085 1.604-.232.559.054 1.48-.366 1.902s-1.343.135-1.902.366c-.541.224-.983 1.085-1.604 1.085s-1.064-.862-1.604-1.085c-.559-.232-1.48.054-1.902-.366s-.135-1.343-.366-1.902c-.224-.541-1.085-.983-1.085-1.604s.862-1.064 1.085-1.604c.232-.559-.054-1.48.366-1.902s1.343-.135 1.902-.366c.541-.224.984-1.085 1.604-1.085s1.064.862 1.604 1.085c.559.232 1.48-.054 1.902.366s.135 1.343.366 1.902c.223.539 1.085.984 1.085 1.604z" style="fill:var(--color34, #fe9738)"/><path fill="#fe860a" d="M24.161 23.64c0 .621-.862 1.065-1.086 1.604-.232.559.054 1.48-.366 1.902s-1.343.135-1.902.366c-.541.224-.983 1.086-1.603 1.086-.403 0-.732-.364-1.06-.68.499-.156 1.454-1.245 1.916-1.438.541-.225 1.191.121 1.6-.289s.084-.994.31-1.537c.216-.523.768-.626.768-1.228s-.551-.661-.768-1.184c-.203-.487-.271-1.923-.53-2.37.475.016.986-.022 1.269.262.422.422.135 1.343.366 1.902.224.54 1.086.981 1.086 1.603z" style="fill:var(--color35, #fe860a)"/><path fill="#ffe3cb" d="M21.443 23.641a2.24 2.24 0 1 1-4.478 0 2.24 2.24 0 0 1 4.478 0z" style="fill:var(--color36, #ffe3cb)"/><path fill="#feca9c" d="M21.443 23.64a2.239 2.239 0 0 1-4.246.996 2.24 2.24 0 0 0 3.143-2.923 2.239 2.239 0 0 1 1.103 1.927z" style="fill:var(--color37, #feca9c)"/><path d="M7.136 7.025c0 .259.21.468.468.468h6.585a.468.468 0 1 0 0-.936H7.604a.468.468 0 0 0-.468.468zM5.339 9.602c0 .259.21.468.468.468h10.176a.468.468 0 1 0 0-.936H5.807a.468.468 0 0 0-.468.468zM15.986 11.71H5.81a.468.468 0 1 0 0 .936h10.176a.468.468 0 1 0 0-.936zM15.986 14.287H5.81a.468.468 0 1 0 0 .936h10.176a.468.468 0 1 0 0-.936zM15.986 16.865H5.81a.468.468 0 1 0 0 .936h10.176a.468.468 0 1 0 0-.936zM13.381 19.441H5.808a.468.468 0 1 0 0 .936h7.573a.468.468 0 1 0 0-.936z" style="fill:var(--color19, #000)"/><path d="m23.352 26.916 1.236 3.031-.002-.002a.744.744 0 0 1-.778 1.022l-1.083-.128-.685.85a.736.736 0 0 1-.688.27.738.738 0 0 1-.581-.456l-.145-.354a.468.468 0 1 1 .866-.354l.022.054.548-.679a.74.74 0 0 1 .667-.271l.866.102-.928-2.277a2.725 2.725 0 0 1-1.017.149 2.143 2.143 0 0 0-.667.073 2.031 2.031 0 0 0-.49.4l.168.412a.468.468 0 1 1-.866.354l-.069-.168c-.33.165-.719.165-1.05 0l-1.045 2.561a.738.738 0 0 1-.692.464.736.736 0 0 1-.577-.278l-.685-.85-1.083.128a.743.743 0 0 1-.778-1.021l1.229-3.013H1.423a1.361 1.361 0 0 1-1.36-1.36V1.361a1.361 1.361 0 0 1 1.36-1.36h18.945a1.36 1.36 0 0 1 1.36 1.36v18.051a1.8 1.8 0 0 1 1.31.393c.309.392.451.891.395 1.387-.011.225.014.45.073.667.108.184.243.35.402.493.401.318.659.782.719 1.29-.06.508-.318.972-.719 1.29a2.054 2.054 0 0 0-.402.493 2.143 2.143 0 0 0-.073.667 3.47 3.47 0 0 1-.082.825zM.997 25.572c0 .234.19.424.424.424l13.546.001a1.824 1.824 0 0 0-.071-.574 2.074 2.074 0 0 0-.402-.493l-.021-.023-.036-.037c-.052-.055-.106-.111-.16-.17H5.946a1.005 1.005 0 0 1-1.003-.894 2.021 2.021 0 0 0-1.516-1.91 1.006 1.006 0 0 1-.762-.978V6.015a1.005 1.005 0 0 1 .762-.978 2.023 2.023 0 0 0 1.516-1.91c.057-.51.489-.896 1.003-.894h1.57a.468.468 0 1 1 0 .936h-1.57a.07.07 0 0 0-.072.061 2.938 2.938 0 0 1-2.219 2.716.07.07 0 0 0-.051.069v14.902a.07.07 0 0 0 .051.069 2.937 2.937 0 0 1 2.219 2.716.072.072 0 0 0 .072.061h7.84a1.27 1.27 0 0 1-.008-.123c.06-.508.318-.972.719-1.29.159-.142.294-.309.402-.493.059-.217.084-.442.073-.667a1.889 1.889 0 0 1 .395-1.387c.392-.31.89-.452 1.387-.395.225.011.45-.014.667-.073.184-.108.35-.243.493-.402l.018-.017c.081-.078.166-.161.257-.241V6.016a.07.07 0 0 0-.051-.069 2.937 2.937 0 0 1-2.219-2.716.072.072 0 0 0-.072-.061H9.67a.467.467 0 0 1-.405-.702.468.468 0 0 1 .405-.234h6.17c.514-.002.946.384 1.003.894.021.904.64 1.684 1.516 1.91.449.112.763.516.762.978v12.203c.025-.003.053-.003.079-.003.508.06.972.318 1.29.719.101.098.203.198.299.276V1.361a.423.423 0 0 0-.423-.424H1.421a.424.424 0 0 0-.424.424v24.212zm15.89 5.276 1.021-2.504a2.05 2.05 0 0 0-.49-.4 2.143 2.143 0 0 0-.667-.073 2.725 2.725 0 0 1-1.017-.149l-.928 2.277.866-.102a.744.744 0 0 1 .668.272l.548.679zm5.608-4.775a2.745 2.745 0 0 1 .145-1.009l.003.002c.146-.298.347-.566.593-.79.212-.217.453-.463.453-.636s-.24-.419-.453-.636a2.64 2.64 0 0 1-.595-.788 2.745 2.745 0 0 1-.145-1.009v-.001c-.005-.296-.012-.63-.121-.74s-.444-.115-.74-.121h-.001a2.745 2.745 0 0 1-1.009-.145 2.64 2.64 0 0 1-.788-.595c-.217-.212-.463-.453-.636-.453s-.42.24-.636.453a2.64 2.64 0 0 1-.788.595c-.324.111-.667.16-1.009.145h-.001c-.296.005-.63.012-.74.121s-.115.444-.121.74v.001c.015.342-.034.685-.145 1.009a2.64 2.64 0 0 1-.595.788c-.212.217-.453.463-.453.636s.24.42.453.636c.246.223.449.49.595.788.111.324.16.667.145 1.009v.001c.005.296.011.63.121.74s.444.115.74.121h.001c.342-.015.685.034 1.009.145.298.147.565.349.788.595.217.212.463.453.636.453s.419-.24.636-.453a2.64 2.64 0 0 1 .788-.595c.324-.111.667-.16 1.009-.145h.001c.296-.005.63-.012.74-.121s.115-.444.121-.74v-.001z" style="fill:var(--color19, #000)"/><path d="M16.497 23.639a2.706 2.706 0 1 1 5.412 0 2.706 2.706 0 0 1-5.412 0zm1.07.679a1.77 1.77 0 1 0 3.271-1.355 1.77 1.77 0 0 0-3.271 1.355z" style="fill:var(--color19, #000)"/></symbol><symbol id="icon-monitor" viewBox="0 0 34 32"><path fill="#4f667a" d="M26.391 31.469a41.305 41.305 0 0 0-2.546-.417 54.006 54.006 0 0 0-6.996-.438c-1.764 0-3.466.078-5.07.225a43.458 43.458 0 0 0-4.472.631 2.764 2.764 0 0 1 2.396-2.739 53.737 53.737 0 0 1 7.149-.46c1.563 0 3.077.062 4.517.177a48.86 48.86 0 0 1 2.632.282 2.764 2.764 0 0 1 2.391 2.739z" style="fill:var(--color38, #4f667a)"/><path fill="#3a5366" d="M26.391 31.469a41.305 41.305 0 0 0-2.546-.417 2.827 2.827 0 0 0-2.384-2.591.805.805 0 0 1-.096-.017 48.86 48.86 0 0 1 2.632.282 2.765 2.765 0 0 1 2.394 2.742z" style="fill:var(--color39, #3a5366)"/><path fill="#aac3d6" d="M21.744 28.473h-9.79l.678-3.912h8.434l.678 3.912z" style="fill:var(--color40, #aac3d6)"/><path fill="#8aabbf" d="M21.743 28.473h-2.034l-.678-3.912h2.034l.678 3.912z" style="fill:var(--color41, #8aabbf)"/><path fill="#e9f5ff" d="M33.697 2.06v20.896c0 .886-.72 1.605-1.608 1.605H1.607a1.607 1.607 0 0 1-1.608-1.605V2.06A1.603 1.603 0 0 1 1.607.452h30.479a1.61 1.61 0 0 1 1.611 1.608z" style="fill:var(--color42, #e9f5ff)"/><path fill="#bde2ef" d="M33.697 2.06v20.896c0 .886-.72 1.605-1.608 1.605h-2.034c.888 0 1.608-.719 1.608-1.605V2.06c0-.886-.72-1.605-1.608-1.605h2.034c.888 0 1.608.719 1.608 1.605z" style="fill:var(--color43, #bde2ef)"/><path fill="#4f667a" d="M33.697 20.567v2.392c0 .886-.72 1.605-1.608 1.605H1.607c-.427 0-.836-.17-1.138-.471s-.471-.711-.47-1.137v-2.392l33.697.003z" style="fill:var(--color38, #4f667a)"/><path fill="#3a5366" d="M33.697 20.567v2.392c0 .886-.72 1.605-1.608 1.605h-2.034c.888 0 1.608-.719 1.608-1.605v-2.392h2.034z" style="fill:var(--color39, #3a5366)"/><path fill="#ffde8f" d="M28.016 4.492h2.578V8.75h-2.578V4.492z" style="fill:var(--color44, #ffde8f)"/><path fill="#ff6e6e" d="M23.272 6.621h2.578v2.126h-2.578V6.621z" style="fill:var(--color45, #ff6e6e)"/><path fill="#b9f6d3" d="M18.566 3.152h2.578V8.75h-2.578V3.152z" style="fill:var(--color46, #b9f6d3)"/><path d="M18.597 22.875a.497.497 0 0 0 0-.996h-3.345a.497.497 0 0 0 0 .996h3.345z" style="fill:var(--color19, #000)"/><path d="M31.786.199h-6.379a.497.497 0 0 0 0 .996h6.379a1.075 1.075 0 0 1 1.072 1.076V19.93H.992V2.271c0-.595.479-1.078 1.072-1.078h21.03a.497.497 0 0 0 0-.996H2.064A2.07 2.07 0 0 0 .001 2.271V22.77a2.07 2.07 0 0 0 2.063 2.072h4.75a.497.497 0 0 0 0-.996h-4.75A1.075 1.075 0 0 1 .992 22.77v-1.845h31.866v1.845a1.075 1.075 0 0 1-1.072 1.076H9.103a.497.497 0 0 0 0 .996h3.121l-.497 2.884a47.35 47.35 0 0 0-1.84.213 3.214 3.214 0 0 0-2.762 3.181.499.499 0 0 0 .592.489 48.13 48.13 0 0 1 9.208-.831 48.209 48.209 0 0 1 9.208.83c.146.029.297-.009.411-.104s.181-.236.181-.385a3.215 3.215 0 0 0-2.762-3.181 47.126 47.126 0 0 0-1.84-.213l-.497-2.884h10.16a2.07 2.07 0 0 0 2.063-2.072V2.272A2.07 2.07 0 0 0 31.785.2zM25.645 30.5a50.273 50.273 0 0 0-8.721-.717 50.273 50.273 0 0 0-8.721.717 2.214 2.214 0 0 1 1.817-1.577 51.265 51.265 0 0 1 6.904-.446 51.418 51.418 0 0 1 6.904.446 2.214 2.214 0 0 1 1.817 1.577h-.001zm-8.719-3.021c1.426 0 2.822.052 4.177.154l-.483-2.796h-7.389l-.481 2.796a55.189 55.189 0 0 1 4.177-.154z" style="fill:var(--color19, #000)"/><path d="M15.448 5.953h-1.71l-1.436-2.834a.496.496 0 0 0-.884 0l-2.34 4.618L7.103 3.84a.496.496 0 0 0-.884 0l-1.07 2.113H3.443a.497.497 0 0 0 0 .996h2.012a.496.496 0 0 0 .442-.272l.766-1.512L8.634 9.06a.496.496 0 0 0 .884 0l2.34-4.619 1.132 2.234a.496.496 0 0 0 .442.272h2.012a.497.497 0 0 0 0-.996l.005.003zM15.447 11.091H3.637a.497.497 0 0 0 0 .996h11.81a.497.497 0 0 0 0-.996zM3.634 15.075H14.45a.5.5 0 0 0 0-.996H3.634a.5.5 0 0 0 0 .996zM3.634 18.057h11.81a.497.497 0 0 0 0-.996H3.634a.497.497 0 0 0 0 .996zM30.328 11.093h-1.931a.497.497 0 0 0 0 .996h1.932a.5.5 0 0 0 0-.996h-.001zM26.076 11.093h-7.56a.497.497 0 0 0 0 .996h7.56a.5.5 0 0 0 0-.996zM18.515 17.065a.497.497 0 0 0 0 .996h10.819a.497.497 0 0 0 0-.996H18.515zM18.019 14.579c0 .275.222.498.496.498h11.81a.497.497 0 0 0 0-.996h-11.81a.497.497 0 0 0-.496.498zM27.814 4.162h2.514c.274 0 .496.223.496.498v4.176a.497.497 0 0 1-.496.498h-2.514a.497.497 0 0 1-.496-.498V4.66a.498.498 0 0 1 .496-.498zm.496 4.176h1.522V5.157H28.31v3.181zM23.189 6.25h2.514c.274 0 .496.223.496.498v2.085a.497.497 0 0 1-.496.498h-2.514a.497.497 0 0 1-.496-.498V6.748c0-.275.222-.498.496-.498zm.495 2.085h1.522V7.243h-1.522v1.092zM21.111 9.334h-2.514a.494.494 0 0 1-.496-.498V3.345c0-.275.222-.498.496-.498h2.514c.274 0 .496.223.496.498v5.491a.497.497 0 0 1-.496.498zm-.496-5.491h-1.522v4.496h1.522V3.843z" style="fill:var(--color19, #000)"/></symbol><symbol id="icon-polling" viewBox="0 0 32 32"><path fill="#98d5b9" d="M30.696 14.436h-5.47a.62.62 0 0 1-.606-.487 8.806 8.806 0 0 0-2.572-4.5 8.897 8.897 0 0 0-4.077-2.198.622.622 0 0 1-.482-.605V1.168a.622.622 0 0 1 .713-.616 15.446 15.446 0 0 1 13.111 13.175.623.623 0 0 1-.616.71l-.001-.001z" style="fill:var(--color47, #98d5b9)"/><path fill="#fd9468" d="M14.515 1.167v5.475c0 .29-.201.541-.483.606a8.814 8.814 0 0 0-4.005 2.115c-.199.182-.39.373-.573.573a8.816 8.816 0 0 0-2.073 4.013.622.622 0 0 1-.607.488h-5.47a.624.624 0 0 1-.616-.711A15.45 15.45 0 0 1 13.799.551a.624.624 0 0 1 .713.616h.003z" style="fill:var(--color3, #fd9468)"/><path fill="#fe646f" d="M31.312 18.122a15.45 15.45 0 0 1-13.111 13.174.624.624 0 0 1-.713-.616v-5.478c0-.289.2-.54.482-.605a8.906 8.906 0 0 0 4.49-2.614 8.792 8.792 0 0 0 2.159-4.084.621.621 0 0 1 .606-.487h5.47a.62.62 0 0 1 .616.709z" style="fill:var(--color48, #fe646f)"/><path fill="#fee45a" d="M14.515 25.206v5.475a.622.622 0 0 1-.713.616A15.445 15.445 0 0 1 .688 18.122a.623.623 0 0 1 .616-.71h5.468a.62.62 0 0 1 .607.488 8.813 8.813 0 0 0 2.65 4.586 8.803 8.803 0 0 0 4.002 2.112.622.622 0 0 1 .484.609z" style="fill:var(--color49, #fee45a)"/><path fill="#fd4755" d="M30.551 21.221a15.497 15.497 0 0 1-9.245 9.296 3.551 3.551 0 0 1-.094-.815v-5.02a3.538 3.538 0 0 1 1.249-2.7 3.536 3.536 0 0 1 2.297-.847h5.02c.26 0 .519.029.773.085z" style="fill:var(--color50, #fd4755)"/><path fill="#918291" d="M29.777 31.382h-5.019a1.68 1.68 0 0 1-1.68-1.68v-5.019c0-.928.752-1.68 1.68-1.68h5.019c.928 0 1.68.752 1.68 1.68v5.019a1.68 1.68 0 0 1-1.68 1.68z" style="fill:var(--color51, #918291)"/><path fill="#ffcebf" d="M29.296 26.711a2.03 2.03 0 1 1-4.058 0 2.03 2.03 0 0 1 4.058 0z" style="fill:var(--color16, #ffcebf)"/><path fill="#8ac9fe" d="M24.758 31.382h5.019c.156 0 .311-.021.461-.064a3 3 0 0 0-5.942 0c.15.043.305.064.461.064z" style="fill:var(--color52, #8ac9fe)"/><path fill="#fedf30" d="M10.788 24.682v5.02a3.6 3.6 0 0 1-.094.815 15.5 15.5 0 0 1-9.245-9.296c.254-.057.514-.085.774-.085h5.02a3.55 3.55 0 0 1 3.546 3.546h-.001z" style="fill:var(--color53, #fedf30)"/><path fill="#918291" d="M7.242 31.382H2.223A1.68 1.68 0 0 1 .542 29.7v-5.019c0-.928.752-1.68 1.68-1.68h5.019c.928 0 1.68.752 1.68 1.68V29.7a1.682 1.682 0 0 1-1.681 1.682z" style="fill:var(--color51, #918291)"/><path fill="#ffcebf" d="M6.761 26.711a2.03 2.03 0 1 1-4.058 0 2.03 2.03 0 0 1 4.058 0z" style="fill:var(--color16, #ffcebf)"/><path fill="#8ac9fe" d="M2.222 31.382h5.019c.156 0 .311-.021.461-.064a3 3 0 0 0-5.942 0c.15.043.305.064.461.064h.001z" style="fill:var(--color52, #8ac9fe)"/><path fill="#57be92" d="M30.551 10.627a3.477 3.477 0 0 1-.774.085h-5.02a3.53 3.53 0 0 1-2.71-1.263 3.534 3.534 0 0 1-.836-2.284v-5.02c0-.274.032-.548.094-.815a15.499 15.499 0 0 1 9.246 9.296z" style="fill:var(--color54, #57be92)"/><path fill="#918291" d="M29.777 8.846h-5.019a1.68 1.68 0 0 1-1.68-1.68V2.147c0-.928.752-1.68 1.68-1.68h5.019c.928 0 1.68.752 1.68 1.68v5.019a1.68 1.68 0 0 1-1.68 1.68z" style="fill:var(--color51, #918291)"/><path fill="#ffcebf" d="M29.296 4.175a2.03 2.03 0 1 1-4.058 0 2.03 2.03 0 0 1 4.058 0z" style="fill:var(--color16, #ffcebf)"/><path fill="#8ac9fe" d="M24.758 8.846h5.019c.156 0 .311-.021.461-.064a3 3 0 0 0-5.942 0c.15.043.305.064.461.064z" style="fill:var(--color52, #8ac9fe)"/><path fill="#fe7d43" d="M10.788 2.146v5.02a3.552 3.552 0 0 1-3.546 3.546h-5.02c-.26 0-.52-.028-.774-.085a15.497 15.497 0 0 1 9.245-9.296c.063.267.094.541.094.815h.001z" style="fill:var(--color4, #fe7d43)"/><path fill="#918291" d="M7.242 8.846H2.223a1.68 1.68 0 0 1-1.68-1.68V2.147c0-.928.752-1.68 1.68-1.68h5.019a1.685 1.685 0 0 1 1.682 1.681v5.019a1.679 1.679 0 0 1-1.682 1.681z" style="fill:var(--color51, #918291)"/><path fill="#ffcebf" d="M6.761 4.175a2.03 2.03 0 1 1-4.058 0 2.03 2.03 0 0 1 4.058 0z" style="fill:var(--color16, #ffcebf)"/><path fill="#8ac9fe" d="M2.222 8.846h5.019c.156 0 .311-.021.461-.064a3 3 0 0 0-5.942 0c.15.042.305.064.461.064h.001z" style="fill:var(--color52, #8ac9fe)"/><path d="M1.53 9.197A2.149 2.149 0 0 1 .076 7.166V2.147A2.15 2.15 0 0 1 2.223 0h5.019c.906.001 1.714.57 2.021 1.422A15.786 15.786 0 0 1 13.741.089a1.097 1.097 0 0 1 1.238 1.078v5.477c.002.508-.35.949-.845 1.061a8.398 8.398 0 0 0-6.298 6.347c-.108.5-.551.856-1.062.854H1.305a1.101 1.101 0 0 1-1.08-1.236 15.8 15.8 0 0 1 1.306-4.472zm10.179 3.939a2.115 2.115 0 0 1 1.979-2.224 2.115 2.115 0 0 1 1.979 2.224 2.115 2.115 0 0 1-1.979 2.224 2.115 2.115 0 0 1-1.979-2.224zm2.454 7.208a.467.467 0 0 1-.25-.611l3.422-8.153a.465.465 0 0 1 .802-.101.468.468 0 0 1 .059.463l-3.422 8.153a.468.468 0 0 1-.611.25zm-.475-5.916a1.19 1.19 0 0 0 1.046-1.291 1.19 1.19 0 0 0-1.046-1.289 1.19 1.19 0 0 0-1.046 1.289 1.19 1.19 0 0 0 1.046 1.291zm-4.3-12.032v4.77h.001a2.16 2.16 0 0 1-2.147 2.147H2.507a14.864 14.864 0 0 0-1.359 4.484.146.146 0 0 0 .155.173h5.469a.154.154 0 0 0 .151-.122 9.335 9.335 0 0 1 7.002-7.055.153.153 0 0 0 .12-.151V1.167a.155.155 0 0 0-.174-.155 14.865 14.865 0 0 0-4.484 1.384zM4.732 6.671a2.548 2.548 0 0 0-2.384 1.678.479.479 0 0 1 .09.031h4.689a2.548 2.548 0 0 0-2.396-1.709zm-.596-3.939a1.563 1.563 0 0 0 .596 3.007 1.563 1.563 0 1 0-.597-3.006zm-3.127-.585v5.018c0 .36.16.702.438.932a3.494 3.494 0 0 1 1.72-1.982 2.496 2.496 0 1 1 3.133 0 3.495 3.495 0 0 1 1.722 1.984c.277-.23.438-.572.438-.933V2.147A1.216 1.216 0 0 0 7.244.933H2.225a1.214 1.214 0 0 0-1.213 1.213zm6.737 15.19a.467.467 0 0 0-.461-.392H.606a.468.468 0 0 0-.465.509 15.87 15.87 0 0 0 .942 4.129.469.469 0 1 0 .876-.328 14.926 14.926 0 0 1-.832-3.376h5.768a9.324 9.324 0 0 0 7.028 7.176.153.153 0 0 1 .12.151v5.475c.005.046-.013.091-.048.122s-.081.043-.126.033a14.842 14.842 0 0 1-4.482-1.383v-4.771a2.15 2.15 0 0 0-2.147-2.147H2.22a2.15 2.15 0 0 0-2.147 2.147v5.019a2.146 2.146 0 0 0 2.146 2.147h5.019a2.255 2.255 0 0 0 2.02-1.421 15.796 15.796 0 0 0 4.478 1.333 1.086 1.086 0 0 0 1.238-1.078v-5.475a1.084 1.084 0 0 0-.845-1.061h-.002a8.386 8.386 0 0 1-6.384-6.809zm-5.41 13.578a2.533 2.533 0 0 1 4.792 0H2.337zm2.396-5.767a1.563 1.563 0 0 1 0 3.126 1.563 1.563 0 0 1-1.561-1.563H3.17c0-.863.7-1.563 1.563-1.563zm3.724 4.554c0 .36-.16.702-.438.933a3.494 3.494 0 0 0-1.72-1.982 2.496 2.496 0 1 0-3.131 0 3.494 3.494 0 0 0-1.72 1.982 1.213 1.213 0 0 1-.438-.933v-5.019a1.215 1.215 0 0 1 1.213-1.213h5.019c.671 0 1.215.543 1.215 1.213v5.019h-.001zm23.32-11.523a1.086 1.086 0 0 0-1.08-1.235h-5.47a1.083 1.083 0 0 0-1.062.852 8.444 8.444 0 0 1-6.302 6.346 1.082 1.082 0 0 0-.841 1.06v5.478a1.09 1.09 0 0 0 1.238 1.078c1.551-.22 3.06-.669 4.479-1.333a2.162 2.162 0 0 0 2.02 1.424h5.019a2.16 2.16 0 0 0 2.147-2.147v-5.019a2.15 2.15 0 0 0-1.454-2.031l.001-.001a15.8 15.8 0 0 0 1.306-4.472zm-9.165 6.503v4.771a14.885 14.885 0 0 1-4.483 1.383.155.155 0 0 1-.174-.155v-5.478c0-.072.05-.135.12-.151a9.379 9.379 0 0 0 7-7.053.154.154 0 0 1 .151-.121h5.47c.045 0 .089.02.118.054a.148.148 0 0 1 .036.119 14.845 14.845 0 0 1-1.359 4.484h-4.735a2.15 2.15 0 0 0-2.147 2.147zm4.657 4.524c1.081 0 2.043.686 2.395 1.709h-4.791a2.534 2.534 0 0 1 2.395-1.709zm-1.562-2.495a1.563 1.563 0 1 1 3.127 0 1.563 1.563 0 0 1-3.127 0h.001zm4.849 3.923a3.494 3.494 0 0 0-1.72-1.982 2.496 2.496 0 1 0-3.133 0 3.494 3.494 0 0 0-1.72 1.982 1.213 1.213 0 0 1-.438-.933v-5.019a1.215 1.215 0 0 1 1.213-1.213h4.986a1.214 1.214 0 0 1 1.246 1.21v5.019l.001.003c0 .36-.16.702-.438.933zM29.777 0a2.15 2.15 0 0 1 2.147 2.147v5.019a2.182 2.182 0 0 1-2.147 2.147h-5.019a2.16 2.16 0 0 1-2.147-2.147V2.395a14.869 14.869 0 0 0-4.482-1.382.145.145 0 0 0-.174.155v5.478c0 .072.05.135.12.151a9.38 9.38 0 0 1 6.999 7.056.154.154 0 0 0 .151.122h5.47c.046.005.091-.013.121-.047s.043-.081.033-.126a14.915 14.915 0 0 0-.738-3.011.466.466 0 0 1 .521-.619.468.468 0 0 1 .358.301c.372 1.037.635 2.109.785 3.2a1.102 1.102 0 0 1-1.079 1.233h-5.47a1.083 1.083 0 0 1-1.062-.853 8.444 8.444 0 0 0-6.302-6.345 1.082 1.082 0 0 1-.841-1.062V1.168A1.095 1.095 0 0 1 18.259.09c1.55.22 3.06.669 4.478 1.333a2.15 2.15 0 0 1 2.02-1.421h5.019zm-2.509 6.671a2.533 2.533 0 0 0-2.395 1.709h4.791a2.534 2.534 0 0 0-2.395-1.709zm-1.562-2.495-.001-.001a1.563 1.563 0 1 0 3.125-.001 1.563 1.563 0 0 0-3.124.002zm4.849 3.923c.277-.23.438-.572.438-.933l-.002-.001V2.146A1.214 1.214 0 0 0 29.778.933h-5.019a1.215 1.215 0 0 0-1.212 1.213v5.02c0 .36.16.702.438.932a3.494 3.494 0 0 1 1.72-1.982 2.494 2.494 0 0 1 1.567-4.438 2.494 2.494 0 0 1 1.566 4.438 3.494 3.494 0 0 1 1.72 1.982zM20.291 18.712h-.001a2.115 2.115 0 0 1-1.978 2.224 2.115 2.115 0 0 1-1.979-2.224 2.115 2.115 0 0 1 1.979-2.224 2.115 2.115 0 0 1 1.979 2.224zm-1.979-1.291a1.19 1.19 0 0 0-1.046 1.291h-.001a1.19 1.19 0 0 0 1.046 1.289 1.189 1.189 0 0 0 1.047-1.289 1.19 1.19 0 0 0-1.046-1.291z" style="fill:var(--color19, #000)"/></symbol><symbol id="icon-calendar" viewBox="0 0 34 32"><path fill="#f7f4f7" d="M25.82 27.279V7.32H1.089l-.595.363v19.592a1.7 1.7 0 0 0 1.7 1.7H24.12a1.7 1.7 0 0 0 1.7-1.697z" style="fill:var(--color55, #f7f4f7)"/><path fill="#edeaed" d="M29.027 7.323H25.44v19.959a1.7 1.7 0 0 1-1.7 1.7h4.181a1.7 1.7 0 0 0 1.7-1.7V7.687l-.594-.363z" style="fill:var(--color56, #edeaed)"/><path fill="#e07f84" d="M25.809 2.934H2.193a1.7 1.7 0 0 0-1.7 1.7v3.053h25.315V2.935z" style="fill:var(--color57, #e07f84)"/><path fill="#db636e" d="M29.622 7.687V4.634a1.7 1.7 0 0 0-1.7-1.7h-2.481v4.752h4.181z" style="fill:var(--color58, #db636e)"/><path fill="#756e78" d="M5.522 5.271A1.531 1.531 0 0 1 3.991 3.74V2.127a1.53 1.53 0 1 1 3.062 0v1.611a1.529 1.529 0 0 1-1.531 1.533zM24.607 5.271a1.531 1.531 0 0 1-1.531-1.531V2.127a1.53 1.53 0 1 1 3.062 0v1.611a1.529 1.529 0 0 1-1.531 1.533z" style="fill:var(--color59, #756e78)"/><path fill="#c9e0fd" d="M25.705 11.321H4.41a.666.666 0 0 0-.666.666v12.371c0 .368.298.666.666.666h21.295a.666.666 0 0 0 .666-.666V11.987a.666.666 0 0 0-.666-.666z" style="fill:var(--color60, #c9e0fd)"/><path fill="#eac173" d="M33.221 22.87c0 4.76-3.858 8.618-8.618 8.618s-8.618-3.858-8.618-8.618 3.858-8.618 8.618-8.618 8.618 3.858 8.618 8.618z" style="fill:var(--color61, #eac173)"/><path fill="#f7f4f7" d="M31.244 22.869a6.642 6.642 0 1 1-13.285 0 6.642 6.642 0 0 1 13.285 0z" style="fill:var(--color55, #f7f4f7)"/><path fill="#edeaed" d="M24.603 16.227c-.71 0-1.416.114-2.09.337a6.644 6.644 0 0 1 0 12.612 6.643 6.643 0 1 0 2.091-12.947v-.003z" style="fill:var(--color56, #edeaed)"/><path fill="#e07f84" d="M25.675 22.869a1.073 1.073 0 1 1-2.146 0 1.073 1.073 0 0 1 2.146 0z" style="fill:var(--color57, #e07f84)"/><path d="M16.057 28.481v.003a.496.496 0 1 1 0 .992H2.196a2.198 2.198 0 0 1-2.195-2.198V4.636a2.198 2.198 0 0 1 2.195-2.195h1.303v-.31a2.027 2.027 0 1 1 4.054 0v.31h15.029v-.31a2.027 2.027 0 1 1 4.054 0v.31h1.287a2.198 2.198 0 0 1 2.195 2.195v8.89a.496.496 0 1 1-.992 0V8.184H9.452a.496.496 0 1 1 0-.992h19.674V4.636a1.205 1.205 0 0 0-1.204-1.204h-1.287v.31a2.027 2.027 0 1 1-4.054 0v-.31H7.551v.31a2.027 2.027 0 1 1-4.054 0v-.31H2.196A1.205 1.205 0 0 0 .992 4.636v2.557h6.147a.496.496 0 1 1 0 .992H.992v19.094a1.205 1.205 0 0 0 1.204 1.204h13.861zm7.515-26.352a1.035 1.035 0 1 1 2.07 0v1.612a1.035 1.035 0 1 1-2.07 0V2.129zM5.525 1.094c-.572 0-1.035.463-1.035 1.035v1.612a1.035 1.035 0 1 0 2.07 0V2.129c0-.572-.463-1.035-1.035-1.035z" style="fill:var(--color19, #000)"/><path d="m29.91 15.461-.001.002a9.115 9.115 0 1 1-14.031 10.058H4.411a1.164 1.164 0 0 1-1.162-1.162v-12.37a1.164 1.164 0 0 1 1.162-1.162h21.293c.641.001 1.161.52 1.162 1.162v2.051a9.047 9.047 0 0 1 3.043 1.421zm-7.568-3.644.001 2.223a9.113 9.113 0 0 1 3.533-.194v-1.858a.17.17 0 0 0-.171-.171h-3.363zm-.99 0h-3.535v2.434h3.535v-2.434zm-3.535 3.425v1.551a9.184 9.184 0 0 1 1.804-1.551h-1.804zm-.991-3.425h-3.534v2.434h3.534v-2.434zm-3.534 3.425v2.434h3.534v-2.434h-3.534zm-8.88 9.289h3.363v-2.434H4.241v2.264a.17.17 0 0 0 .171.171zm3.363-3.425v-2.434H4.241v2.434h3.534zM4.241 17.68h3.534v-2.434H4.241v2.434zm3.534-3.425v-2.436H4.412a.17.17 0 0 0-.171.171v2.266h3.534zm.991 10.276H12.3v-2.434H8.766v2.434zm3.534-3.425v-2.434H8.766v2.434H12.3zM8.766 17.68H12.3v-2.434H8.766v2.434zm3.534-3.425v-2.434H8.766v2.434H12.3zm.992 7.842v2.434l2.348.001a9.23 9.23 0 0 1-.117-2.434h-2.231zm2.37-.991v-.004a9.038 9.038 0 0 1 .856-2.43h-3.226v2.434h2.37zm1.436 4.871a8.12 8.12 0 0 0 7.504 5.013 8.07 8.07 0 0 0 8.121-8.121 8.121 8.121 0 1 0-15.624 3.107z" style="fill:var(--color19, #000)"/><path d="M17.464 22.869a7.138 7.138 0 1 1 14.277 0 7.138 7.138 0 0 1-14.277 0zm11.599 3.761.218.218a6.123 6.123 0 0 0 1.446-3.483.496.496 0 1 1 0-.992 6.116 6.116 0 0 0-1.446-3.483l-.218.218a.495.495 0 1 1-.701-.701l.218-.218a6.116 6.116 0 0 0-3.483-1.446.496.496 0 1 1-.992 0 6.123 6.123 0 0 0-3.483 1.446l.218.218a.495.495 0 1 1-.701.701l-.218-.218a6.116 6.116 0 0 0-1.446 3.483.496.496 0 1 1 0 .992 6.116 6.116 0 0 0 1.446 3.483l.218-.218a.495.495 0 1 1 .701.701l-.218.218a6.123 6.123 0 0 0 3.483 1.446.496.496 0 1 1 .992 0 6.116 6.116 0 0 0 3.483-1.446l-.218-.218a.495.495 0 1 1 .701-.701z" style="fill:var(--color19, #000)"/><path d="M25.098 19.062v2.318h.001a1.569 1.569 0 0 1-.709 3.043l-.539 1.094a.496.496 0 1 1-.89-.438l.539-1.095a1.566 1.566 0 0 1 .607-2.604v-2.318a.496.496 0 1 1 .992 0zm-1.074 3.807a.578.578 0 1 0 1.157 0 .578.578 0 0 0-1.157 0z" style="fill:var(--color19, #000)"/></symbol><symbol id="icon-online-shop" viewBox="0 0 38 32"><path fill="#dbd9dc" d="M23.436 26.151h-2.934L20.2 27.36a1.503 1.503 0 0 1-2.916 0l-.302-1.209h-2.934l-.587 4.695h10.564l-.588-4.695z" style="fill:var(--color62, #dbd9dc)"/><path fill="#c9c6ca" d="M19.719 28.131h3.965l-.248-1.981h-2.934l-.302 1.209c-.076.301-.244.57-.481.772zM16.981 26.151h-2.934l-.248 1.981h3.965a1.503 1.503 0 0 1-.481-.772l-.302-1.209z" style="fill:var(--color63, #c9c6ca)"/><path fill="#edebed" d="M35.174 26.371H2.31A1.761 1.761 0 0 1 .549 24.61V2.308c0-.972.788-1.761 1.761-1.761h32.864c.972 0 1.761.788 1.761 1.761V24.61c0 .972-.788 1.761-1.761 1.761z" style="fill:var(--color64, #edebed)"/><path fill="#e6646e" d="M2.897 2.896h31.69v21.127H2.897V2.896z" style="fill:var(--color65, #e6646e)"/><path fill="#dc4655" d="M15.22 22.263c-5.834 0-10.563-4.729-10.564-10.563V2.897h-1.76v21.127h31.69v-1.761H15.219z" style="fill:var(--color66, #dc4655)"/><path fill="#6f6571" d="M16.394 19.328a1.173 1.173 0 1 1-2.346 0 1.173 1.173 0 0 1 2.346 0zM24.61 19.328a1.173 1.173 0 1 1-2.346 0 1.173 1.173 0 0 1 2.346 0z" style="fill:var(--color67, #6f6571)"/><path fill="#ef9aa1" d="m12.469 8.232 1.89 6.615c.159.553.695.909 1.266.841l7.715-.906a1.761 1.761 0 0 0 1.521-1.403l.923-4.615-13.315-.532z" style="fill:var(--color68, #ef9aa1)"/><path d="M2.31 0h32.864a2.313 2.313 0 0 1 2.31 2.31v22.301a2.313 2.313 0 0 1-2.31 2.31H24.055l.453 3.596h1.863a.55.55 0 1 1 0 1.1H11.109a.55.55 0 1 1 0-1.1h1.863l.453-3.596H2.31A2.312 2.312 0 0 1 0 24.61V2.31A2.313 2.313 0 0 1 2.31 0zm11.772 30.516h9.319l-.447-3.597h-2.021l-.198.793a2.053 2.053 0 0 1-3.982 0l-.198-.793h-2.021l-.453 3.597zm3.602-3.595h2.115l-.129.526a.954.954 0 0 1-1.852 0l-.134-.526zm17.49-1.099a1.214 1.214 0 0 0 1.212-1.212V2.31a1.214 1.214 0 0 0-1.212-1.212H2.312A1.214 1.214 0 0 0 1.1 2.31v22.3c.001.668.542 1.21 1.21 1.212h32.864z" style="fill:var(--color19, #000)"/><path d="M4.071 23.474h-.625V3.446h27.62a.55.55 0 1 0 0-1.1H2.896a.548.548 0 0 0-.549.549v21.127a.55.55 0 0 0 .549.549H4.07a.55.55 0 1 0 0-1.1v.003zM34.587 2.347h-1.174a.55.55 0 1 0 0 1.1h.625v20.028H6.418a.55.55 0 1 0 0 1.1h28.169a.55.55 0 0 0 .549-.549V2.897a.549.549 0 0 0-.549-.549z" style="fill:var(--color19, #000)"/><path d="m15.055 16.191-.681 1.363a.038.038 0 0 0 .033.055h10.201a.55.55 0 0 1 .368.955 1.724 1.724 0 1 1-3.147.143h-5.005a1.723 1.723 0 1 1-3.101-.229 1.143 1.143 0 0 1-.282-.31 1.128 1.128 0 0 1-.05-1.105l.737-1.474a1.74 1.74 0 0 1-.299-.588L11.815 7.95a.036.036 0 0 0-.015-.021l-1.581-1.054a.55.55 0 1 1 .61-.914l1.581 1.054c.219.146.38.363.457.615l12.941.587a.546.546 0 0 1 .513.656l-.923 4.615a2.305 2.305 0 0 1-1.995 1.841l-7.715.906a1.749 1.749 0 0 1-.634-.043zm.506-1.048.843-.1-.461-2.798h-1.755l.699 2.448a.622.622 0 0 0 .673.449zm4.317-2.897v2.39l1.682-.199.199-2.191h-1.881zm0-1.098 1.98-.001.182-2.005-2.162-.098v2.104zm-3.003 0h1.903l.002-2.154-2.277-.103.372 2.258zm1.903 1.1v.001h-1.723l.44 2.67 1.283-.151v-2.519h.001l-.001-.001zm3.895 2.06.603-.07a1.207 1.207 0 0 0 1.045-.966l.204-1.024h-1.666l-.186 2.06zm2.073-3.158.373-1.866-1.983-.09-.177 1.956h1.787zm-8.985 0-.38-2.309-2.195-.1.688 2.408h1.887zm.083 8.178.001.001a.623.623 0 0 0-.626-.626.625.625 0 1 0 .625.625zm6.966 0c0 .345.28.625.625.625h.001a.625.625 0 1 0-.626-.625z" style="fill:var(--color19, #000)"/></symbol><symbol id="icon-cv" viewBox="0 0 31 32"><path fill="#f4f8f8" d="M2.611.463A2.06 2.06 0 0 0 .552 2.522v26.52a2.06 2.06 0 0 0 2.059 2.059h19.356a2.06 2.06 0 0 0 2.059-2.059V6.812c0-.414-.164-.81-.457-1.103L18.78.92a1.558 1.558 0 0 0-1.103-.457H2.611z" style="fill:var(--color69, #f4f8f8)"/><path fill="#e7ecf1" d="M20.381 6.165c-.048 0-.096 0-.144-.006V29.04a2.06 2.06 0 0 1-2.059 2.059h3.788a2.06 2.06 0 0 0 2.059-2.059V6.81c0-.223-.048-.443-.14-.646h-3.504z" style="fill:var(--color70, #e7ecf1)"/><path fill="#ffece3" d="M25.195 22.355a.633.633 0 0 1-.555-.626l-.012-2.9-4.43.019.012 2.9a.634.634 0 0 1-.55.631s-.818 2.796 2.779 2.781 2.756-2.804 2.756-2.804z" style="fill:var(--color71, #ffece3)"/><path fill="#ffddce" d="M20.852 22.952a.635.635 0 0 0 .555.626 20.37 20.37 0 0 1 3.477.695 2.317 2.317 0 0 0 .313-1.919.633.633 0 0 1-.555-.626l-.012-2.9-3.784.016.006 4.107z" style="fill:var(--color72, #ffddce)"/><path fill="#fc8086" d="M23.57 5.708 18.781.919a1.552 1.552 0 0 0-.457-.316v3.506a2.06 2.06 0 0 0 2.059 2.059h3.506a1.557 1.557 0 0 0-.319-.459z" style="fill:var(--color73, #fc8086)"/><path fill="#bed8fb" d="M9.062 3.67H4.224a.428.428 0 0 0-.428.428v1.64c0 .236.192.428.428.428h4.838a.428.428 0 0 0 .428-.428V4.099a.428.428 0 0 0-.428-.429z" style="fill:var(--color74, #bed8fb)"/><path fill="#ffece3" d="M26.594 14.775h-.268v-.313l-.003-.751a3.664 3.664 0 0 0-1.252-2.779 4.025 4.025 0 0 0-5.38.023 3.664 3.664 0 0 0-1.229 2.789l.003.751v.313h-.268a.711.711 0 0 0-.708.714l.003.788c.002.393.321.71.714.709h.269a3.66 3.66 0 0 0 1.252 2.696 4.025 4.025 0 0 0 5.38-.023 3.658 3.658 0 0 0 1.228-2.706h.269a.712.712 0 0 0 .709-.714l-.003-.788a.712.712 0 0 0-.714-.709h-.001z" style="fill:var(--color71, #ffece3)"/><path fill="#ffddce" d="M27.309 15.484a.712.712 0 0 0-.714-.709h-.268v-.313l-.003-.751a3.666 3.666 0 0 0-1.252-2.779 4.316 4.316 0 0 0-1.246-.751l.006 6.806a3.656 3.656 0 0 1-1.228 2.706 4.245 4.245 0 0 1-1.449.835c1.372.46 2.886.14 3.954-.835a3.658 3.658 0 0 0 1.228-2.706h.269a.711.711 0 0 0 .708-.714l-.006-.789z" style="fill:var(--color72, #ffddce)"/><path fill="#8c9ba6" d="M29.429 31.1a1.555 1.555 0 0 0 1.497-1.568l-.015-3.519a3.085 3.085 0 0 0-1.842-2.81 17.199 17.199 0 0 0-3.875-.848l-2.761 1.743-2.775-1.72a17.211 17.211 0 0 0-3.867.881 3.083 3.083 0 0 0-1.815 2.826l.015 3.519a1.499 1.499 0 0 0 1.51 1.496h13.928z" style="fill:var(--color75, #8c9ba6)"/><path fill="#7c8b96" d="M30.914 26.013a3.085 3.085 0 0 0-1.842-2.81 17.253 17.253 0 0 0-3.875-.848l-2.296 1.448c.813.123 1.61.333 2.379.626a3.086 3.086 0 0 1 1.842 2.81l.006 3.863h2.299a1.555 1.555 0 0 0 1.497-1.568l-.01-3.521z" style="fill:var(--color76, #7c8b96)"/><path fill="#aa8080" d="m23.904 9.67-3.09.013a1.291 1.291 0 0 0-1.213.863.478.478 0 0 1-.448.323 1.3 1.3 0 0 0-1.296 1.307l.011 2.715s1.142-.018 1.531.361c.036.039.092.052.141.031s.08-.07.077-.123l-.008-1.785a1.124 1.124 0 0 1 1.117-1.127h.014c.189-.001.376.028.556.085.316.104.647.159.98.161h.217c.333-.005.663-.062.979-.169.179-.059.367-.089.555-.09h.014a1.124 1.124 0 0 1 1.127 1.117l.006 1.537a.28.28 0 0 0 .25.276 1.4 1.4 0 0 0 .797-.143 1.65 1.65 0 0 1 .703-.169l-.009-2.2a2.997 2.997 0 0 0-3.012-2.985z" style="fill:var(--color77, #aa8080)"/><path fill="#9d6b6b" d="M23.904 9.67h-.081v2.579c.067-.008.135-.013.203-.014h.014a1.124 1.124 0 0 1 1.127 1.117l.006 1.537a.28.28 0 0 0 .25.276 1.4 1.4 0 0 0 .797-.143 1.65 1.65 0 0 1 .703-.169l-.009-2.2a2.997 2.997 0 0 0-3.01-2.983z" style="fill:var(--color78, #9d6b6b)"/><path fill="#7c8b96" d="m18.805 23.597 1.597 1.359c.23.196.564.209.808.031l1.225-.89-2.775-1.72c-.153.021-.332.046-.528.075a.652.652 0 0 0-.328 1.144zM26.06 23.567l-1.585 1.372a.655.655 0 0 1-.808.038l-1.233-.876 2.761-1.743c.153.019.332.043.528.071a.655.655 0 0 1 .336 1.139z" style="fill:var(--color76, #7c8b96)"/><path fill="#fb636f" d="m22.433 24.098-1.225.89.585 1.368 1.295-.006.578-1.373-1.233-.88z" style="fill:var(--color79, #fb636f)"/><path fill="#fc8086" d="m23.83 31.1-.741-4.749-1.295.006-.694 4.744h2.731z" style="fill:var(--color73, #fc8086)"/><path d="M15.095 10.942H3.707a.462.462 0 1 0 0 .924h11.388a.462.462 0 0 0 0-.924zM15.095 14.353H3.707a.462.462 0 1 0 0 .924h11.388a.462.462 0 0 0 0-.924zM15.557 18.226a.463.463 0 0 0-.463-.463H3.706a.462.462 0 1 0 0 .924h11.388a.464.464 0 0 0 .463-.462zM3.707 21.175a.462.462 0 1 0 0 .924h5.311a.462.462 0 1 0 0-.924H3.707zM8.973 6.627H4.135a.892.892 0 0 1-.89-.89v-1.64a.892.892 0 0 1 .89-.89h4.838a.892.892 0 0 1 .89.89v1.64a.892.892 0 0 1-.89.89zm-.034-2.495H4.17v1.57h4.769v-1.57z" style="fill:var(--color19, #000)"/><path d="M2.521 30.637h9.953a.462.462 0 0 1 0 .924H2.521A2.524 2.524 0 0 1 0 29.04V2.52A2.524 2.524 0 0 1 2.521-.001h15.067a2.013 2.013 0 0 1 1.43.592l4.789 4.791c.38.378.593.892.592 1.427v.694a.462.462 0 0 1-.924 0v-.694c0-.061-.006-.123-.016-.183h-3.165a2.524 2.524 0 0 1-2.521-2.521V.94a1.131 1.131 0 0 0-.183-.016H2.523A1.598 1.598 0 0 0 .927 2.52v26.52a1.598 1.598 0 0 0 1.596 1.596zm20.3-24.934-4.124-4.124v2.528a1.598 1.598 0 0 0 1.596 1.596h2.528z" style="fill:var(--color19, #000)"/><path d="M29.167 22.779a3.55 3.55 0 0 1 2.118 3.231l.019 3.522a2.075 2.075 0 0 1-.563 1.413 1.92 1.92 0 0 1-1.396.62H15.398a1.968 1.968 0 0 1-1.964-1.957l-.015-3.519a3.55 3.55 0 0 1 2.091-3.249 17.389 17.389 0 0 1 3.996-.917.173.173 0 0 0 .149-.171l-.006-1.433a6.009 6.009 0 0 1-.313-.25 4.087 4.087 0 0 1-1.377-2.594 1.173 1.173 0 0 1-1.017-1.159l-.003-.788c-.002-.33.136-.646.38-.869l-.011-2.479a1.766 1.766 0 0 1 1.757-1.772c.005 0 .014-.006.014-.014a1.757 1.757 0 0 1 1.647-1.172l3.105-.013a3.462 3.462 0 0 1 3.458 3.443l.008 1.964c.246.221.386.535.387.866l.003.788a1.175 1.175 0 0 1-1.008 1.167 4.086 4.086 0 0 1-1.67 2.856l.006 1.433a.173.173 0 0 0 .151.17 17.43 17.43 0 0 1 4.003.883zm-3.636.099-.319-.043-2.038 1.286.672.48c.072.052.17.047.237-.011l1.585-1.372a.192.192 0 0 0-.097-.334l-.04-.006zm-3.187.674 1.934-1.219a1.09 1.09 0 0 1-.188-.603l-.004-.902a4.423 4.423 0 0 1-3.506.015l.004.902c.001.215-.062.425-.181.604l1.941 1.203zm.352 2.338.313-.751-.658-.474-.657.478.319.747h.683zm-3.631-14.558.001.001a.84.84 0 0 0-.836.843l.009 2.272c.279.02.556.073.823.156l-.005-1.224a1.586 1.586 0 0 1 1.578-1.591h.013c.236 0 .472.036.697.106a3.17 3.17 0 0 0 1.894-.008 2.26 2.26 0 0 1 .697-.113h.021c.872 0 1.58.705 1.583 1.578l.006 1.36a.924.924 0 0 0 .371-.1c.143-.072.294-.127.45-.163l-.008-1.793a2.537 2.537 0 0 0-2.533-2.523l-3.101.013a.832.832 0 0 0-.779.554.942.942 0 0 1-.882.632zm-.68 5.226c.251 0 .456.2.462.451h.001a3.192 3.192 0 0 0 1.497 2.661 3.54 3.54 0 0 0 3.949-.018 3.191 3.191 0 0 0 1.48-2.678.462.462 0 0 1 .46-.454h.269a.25.25 0 0 0 .25-.25l-.003-.788a.242.242 0 0 0-.059-.158 1.137 1.137 0 0 0-.356.107 1.856 1.856 0 0 1-1.061.192.742.742 0 0 1-.657-.734l-.006-1.537a.66.66 0 0 0-.66-.657c-.145 0-.289.023-.427.067a4.09 4.09 0 0 1-2.46.011 1.35 1.35 0 0 0-.428-.063.66.66 0 0 0-.657.662l.008 1.785a.59.59 0 0 1-1.001.424 2.18 2.18 0 0 0-1.061-.228.247.247 0 0 0-.063.168l.003.788c0 .138.112.25.25.25h.269zm2.225 14.079.618-4.219-.364-.851a1.1 1.1 0 0 1-.853-.259l-1.596-1.359a1.103 1.103 0 0 1-.393-.854c-.728.121-1.441.317-2.128.585a2.627 2.627 0 0 0-1.546 2.402l.015 3.519a1.043 1.043 0 0 0 1.041 1.037h.805l-.008-1.825a.466.466 0 0 1 .461-.465c.254 0 .461.206.462.46l.008 1.829h3.478zm.001-6.032a.192.192 0 0 0 .237.009l.672-.486-2.052-1.269a26.5 26.5 0 0 0-.359.052.192.192 0 0 0-.094.335l1.596 1.359zm.933 6.032 1.657.004-.597-3.823h-.501l-.56 3.819zm7.794 0c.277-.005.54-.123.726-.329h.001c.198-.21.309-.488.31-.776l-.015-3.519a2.626 2.626 0 0 0-1.565-2.389 10.724 10.724 0 0 0-2.135-.567c.006.329-.136.644-.386.858l-1.585 1.372a1.093 1.093 0 0 1-.851.265l-.359.855.66 4.229h3.476l-.008-1.873a.466.466 0 0 1 .461-.465c.254 0 .461.206.462.46l.008 1.878h.801z" style="fill:var(--color19, #000)"/></symbol><symbol id="icon-document" viewBox="0 0 32 32"><path fill="#f7f4f7" d="M20.28 5.819a1.178 1.178 0 0 1-1.176-1.178V.723l-.159-.179a1.05 1.05 0 0 0-.383-.076H1.945C1.128.468.466 1.13.466 1.947V29.91c0 .817.662 1.479 1.479 1.479h4.928l.734-.757h13.272V5.821h-.6z" style="fill:var(--color55, #f7f4f7)"/><path fill="#edeaed" d="M20.566 5.967V29.85c-.016.82-.66 1.49-1.479 1.538h3.936a1.571 1.571 0 0 0 1.479-1.538V6.579c0-.211-.045-.42-.133-.613h-3.803z" style="fill:var(--color56, #edeaed)"/><path fill="#c1bcc4" d="M18.944.543c.161.073.308.174.433.299l4.692 4.692c.125.125.226.272.299.433h-4.246a1.177 1.177 0 0 1-1.178-1.178V.543z" style="fill:var(--color80, #c1bcc4)"/><path fill="#c1a0a0" d="M27.821 29.498V15.073a1.89 1.89 0 0 0-1.89-1.89H6.874a1.89 1.89 0 0 0-1.89 1.89v14.425a1.893 1.893 0 0 0 1.89 1.89h19.057a1.893 1.893 0 0 0 1.89-1.89z" style="fill:var(--color81, #c1a0a0)"/><path fill="#b58c8c" d="M29.554 13.186h-3.936a1.89 1.89 0 0 1 1.893 1.89v14.425a1.893 1.893 0 0 1-1.89 1.89h3.932a1.893 1.893 0 0 0 1.89-1.89V15.076a1.89 1.89 0 0 0-1.89-1.89z" style="fill:var(--color82, #b58c8c)"/><path fill="#b58c8c" d="M27.821 15.076a1.89 1.89 0 0 0-1.89-1.89H6.874a1.89 1.89 0 0 0-1.89 1.89 4.37 4.37 0 0 0 1.367 3.174l1.104 1.044a5.786 5.786 0 0 0 3.976 1.582h13.568c.988 0 1.959-.253 2.822-.735v-5.066h.001z" style="fill:var(--color82, #b58c8c)"/><path fill="#a87f7f" d="M29.554 13.186h-3.936a1.89 1.89 0 0 1 1.893 1.89v5.227c1.195-.574 1.698-1.285 2.569-2.053a4.366 4.366 0 0 0 1.367-3.174 1.892 1.892 0 0 0-1.894-1.89z" style="fill:var(--color83, #a87f7f)"/><path fill="#e8ae4d" d="M11.774 18.307h.95a1.153 1.153 0 0 1 1.149 1.149v3.537c0 .635-.514 1.149-1.149 1.149h-.95a1.148 1.148 0 0 1-1.149-1.149v-3.537a1.15 1.15 0 0 1 1.149-1.149z" style="fill:var(--color84, #e8ae4d)"/><path fill="#efc984" d="M12.725 18.307h-.95c-.635 0-1.149.514-1.149 1.149v2.376h3.243v-2.376c0-.633-.511-1.146-1.144-1.149z" style="fill:var(--color85, #efc984)"/><path fill="#e8ae4d" d="M23.706 18.307h.95a1.153 1.153 0 0 1 1.149 1.149v3.537c0 .635-.514 1.149-1.149 1.149h-.95a1.148 1.148 0 0 1-1.149-1.149v-3.537a1.15 1.15 0 0 1 1.149-1.149z" style="fill:var(--color84, #e8ae4d)"/><path fill="#efc984" d="M24.656 18.307h-.95c-.635 0-1.149.514-1.149 1.149v2.376H25.8v-2.376c0-.633-.511-1.146-1.144-1.149z" style="fill:var(--color85, #efc984)"/><path d="M29.555 12.719H6.874a2.36 2.36 0 0 0-2.357 2.357v14.425a2.36 2.36 0 0 0 2.357 2.357h22.681a2.36 2.36 0 0 0 2.357-2.357V15.076a2.36 2.36 0 0 0-2.357-2.357zm1.423 16.777a1.425 1.425 0 0 1-1.423 1.423H6.873a1.425 1.425 0 0 1-1.423-1.423V17.931c.172.236.366.456.578.657l.337.322c1.056 1.012 2.029 1.946 3.793 2.306v1.772a1.616 1.616 0 0 0 1.614 1.614h.95a1.615 1.615 0 0 0 1.614-1.614v-1.646h7.753v1.646a1.616 1.616 0 0 0 1.614 1.614h.95a1.615 1.615 0 0 0 1.614-1.614v-1.777c1.751-.363 2.636-1.204 3.856-2.364l.274-.26c.212-.201.406-.421.578-.657l-.001 11.566zm-19.882-8.672v-1.375a.679.679 0 0 1 .678-.675h.95c.375 0 .679.304.679.679v3.537a.679.679 0 0 1-.679.679h-.95a.68.68 0 0 1-.679-.678l.001-.005v-2.162zm11.931.046v-1.421a.679.679 0 0 1 .679-.676h.95c.375 0 .679.304.679.679v3.54a.679.679 0 0 1-.679.679h-.95a.679.679 0 0 1-.679-.679v-2.123zm6.158-2.428c-.816.78-1.535 1.469-2.915 1.808v-.802a1.616 1.616 0 0 0-1.614-1.614h-.95a1.615 1.615 0 0 0-1.614 1.614v.957h-7.753v-.957a1.616 1.616 0 0 0-1.614-1.614h-.95a1.615 1.615 0 0 0-1.614 1.614v.806c-1.468-.363-2.395-1.288-3.014-1.906-.192-.191-.354-.353-.493-.46a3.92 3.92 0 0 1-1.202-2.817 1.425 1.425 0 0 1 1.423-1.423h22.681a1.425 1.425 0 0 1 1.423 1.423c0 1.072-.44 2.097-1.217 2.836l.001-.005c-.203.183-.392.364-.577.54z" style="fill:var(--color19, #000)"/><path d="M1.947 30.921h1.575a.468.468 0 1 1 0 .936H1.947A1.949 1.949 0 0 1 0 29.91V1.947A1.948 1.948 0 0 1 1.947.001h16.612c.436.009.85.193 1.149.511L24.4 5.203c.365.365.57.86.57 1.377v4.398a.468.468 0 1 1-.936 0V6.58a1.01 1.01 0 0 0-.01-.145h-3.901a1.647 1.647 0 0 1-1.645-1.645V.936H1.947A1.014 1.014 0 0 0 .935 1.948v27.963a1.014 1.014 0 0 0 1.012 1.012zM23.373 5.499l-3.962-3.962v3.252a.71.71 0 0 0 .71.71h3.251z" style="fill:var(--color19, #000)"/><path d="M10.284 3.956H3.381a.468.468 0 1 1 0-.936h6.903a.468.468 0 1 1 0 .936zM10.284 6.754H3.381a.468.468 0 1 1 0-.936h6.903a.468.468 0 1 1 0 .936z" style="fill:var(--color19, #000)"/></symbol><symbol id="icon-sticky-notes" viewBox="0 0 32 32"><path fill="#eabc6b" d="m22.548 27.274 2.887-23.413a1.126 1.126 0 0 0-.488-1.071.402.402 0 0 0-.184-.064L4.582.474a1.122 1.122 0 0 0-1.235.977L.476 24.712a1.118 1.118 0 0 0 .989 1.251l20.358 2.269c.391-.173.665-.536.724-.96z" style="fill:var(--color86, #eabc6b)"/><path fill="#e8ae4d" d="m28.273 3.115-3.537-.394c.42.216.66.672.603 1.14l-2.887 23.413a1.127 1.127 0 0 1-.792.941l3.496.39a1.122 1.122 0 0 0 1.237-.977l2.868-23.261a1.118 1.118 0 0 0-.989-1.252h.001z" style="fill:var(--color84, #e8ae4d)"/><path fill="#f4e066" d="M25.768 26.546c0-.55.446-.996.996-.996h.966V6.814c0-.619-.502-1.121-1.121-1.121H6.556c-.619 0-1.121.502-1.121 1.121v23.419c0 .619.502 1.121 1.121 1.121H25.16c.157 0 .313-.033.457-.098a.26.26 0 0 0 .152-.237v-4.473z" style="fill:var(--color87, #f4e066)"/><path fill="#efd133" d="M27.556 6.814v18.634h3.873c.066-.146.101-.304.1-.465V6.814c0-.619-.502-1.121-1.121-1.121h-3.974c.619 0 1.121.502 1.121 1.121z" style="fill:var(--color88, #efd133)"/><path fill="#e8ae4d" d="M25.624 31.253c.353-.161.116-.051 5.578-5.476.095-.095.171-.206.227-.328H26.62a.996.996 0 0 0-.996.996v4.808z" style="fill:var(--color84, #e8ae4d)"/><path fill="#f7f4f7" d="M19.947 9.66a1.464 1.464 0 1 1-2.928 0 1.464 1.464 0 0 1 2.928 0z" style="fill:var(--color55, #f7f4f7)"/><path d="M27.959 13.563H9.007a.471.471 0 0 0 0 .942h18.952a.471.471 0 0 0 0-.942h.001zM27.959 16.756H9.007a.471.471 0 0 0 0 .942h18.952a.471.471 0 0 0 0-.942h.001zM28.429 20.419a.473.473 0 0 0-.471-.471H9.006a.471.471 0 0 0 0 .942h18.952a.467.467 0 0 0 .471-.471zM9.007 23.142a.471.471 0 0 0 0 .942h9.476a.471.471 0 0 0 0-.942H9.007z" style="fill:var(--color19, #000)"/><path d="M32 8.562a.47.47 0 0 1-.94 0V6.815a.652.652 0 0 0-.651-.651H6.559a.652.652 0 0 0-.651.651v23.416c0 .359.291.65.65.651h18.595v-4.44a1.468 1.468 0 0 1 1.468-1.466h4.439V10.762a.471.471 0 0 1 .942 0v14.22a1.61 1.61 0 0 1-.467 1.126l-5.248 5.248a1.61 1.61 0 0 1-1.126.467H6.56a1.594 1.594 0 0 1-1.592-1.592v-3.404l-3.549-.395a1.593 1.593 0 0 1-1.405-1.777l.424-3.452a.472.472 0 0 1 .935.115L.947 24.77c-.021.173.028.347.136.484s.267.224.44.242l3.445.384V6.816A1.594 1.594 0 0 1 6.56 5.224h22.125l.113-.913a.654.654 0 0 0-.576-.727L4.536.944a.653.653 0 0 0-.718.567L1.642 19.133a.47.47 0 1 1-.935-.116L2.883 1.395A1.601 1.601 0 0 1 4.64.007l23.687 2.64a1.59 1.59 0 0 1 1.407 1.777l-.099.797h.776a1.593 1.593 0 0 1 1.592 1.592V8.56zm-5.38 17.353a.525.525 0 0 0-.525.525l.003 3.773 4.299-4.299h-3.776z" style="fill:var(--color19, #000)"/><path d="M18.483 7.727a1.935 1.935 0 1 1 0 3.87 1.935 1.935 0 0 1 0-3.87zm-.381 1.016a.995.995 0 0 0 .381 1.912.992.992 0 0 0 .702-1.697.994.994 0 0 0-1.083-.215z" style="fill:var(--color19, #000)"/></symbol><symbol id="icon-folder" viewBox="0 0 33 32"><path fill="#fec458" d="M24.408.587h-11.04c.396 0 .75.247.888.618l.564 1.746c.187.504.668.839 1.206.839h8.293c.524 0 .948.424.948.948V1.45a.865.865 0 0 0-.859-.863z" style="fill:var(--color89, #fec458)"/><path fill="#f9ab49" d="m18.166 2.95-.564-1.746a.948.948 0 0 0-.888-.618h-3.346c.396 0 .75.247.888.618l.564 1.746c.187.504.668.839 1.206.839h3.347c-.538 0-1.02-.334-1.207-.839z" style="fill:var(--color90, #f9ab49)"/><path fill="#ffe181" d="M24.317 3.561h-8.064a1.285 1.285 0 0 1-1.206-.839l-.564-1.518a.948.948 0 0 0-.888-.618h-4.79a.947.947 0 0 0-.948.948v12.032c0 .524.424.948.948.948h15.513a.947.947 0 0 0 .948-.948v-9.06a.948.948 0 0 0-.948-.946z" style="fill:var(--color91, #ffe181)"/><path fill="#fec458" d="M10.89 13.567V1.535c0-.524.424-.948.948-.948H8.805a.947.947 0 0 0-.948.948v12.032c0 .524.424.948.948.948h3.033a.947.947 0 0 1-.948-.948zM8.033 22.78h-6.65a.53.53 0 0 0-.525.525v1.436a.597.597 0 0 1 .225-.044h1.955c.249 0 .472.155.559.389l.223.602c.087.234.31.389.559.389h3.583c.329 0 .596.267.596.596v-3.37a.53.53 0 0 0-.525-.523z" style="fill:var(--color89, #fec458)"/><path fill="#f9ab49" d="M3.101 23.305a.529.529 0 0 1 .525-.525H1.383a.53.53 0 0 0-.525.525v1.436a.597.597 0 0 1 .225-.044h1.955c.022 0 .044.002.066.005l-.003-1.397z" style="fill:var(--color90, #f9ab49)"/><path fill="#ffe181" d="M7.962 25.93H4.379a.597.597 0 0 1-.559-.389l-.226-.6a.597.597 0 0 0-.559-.389H1.083a.596.596 0 0 0-.596.596v5.265c0 .329.267.596.596.596h6.88a.596.596 0 0 0 .596-.596v-3.886a.594.594 0 0 0-.596-.598z" style="fill:var(--color91, #ffe181)"/><path fill="#fec458" d="M2.729 30.412v-5.265c0-.273.186-.511.45-.578a.615.615 0 0 0-.142-.019H1.082a.596.596 0 0 0-.596.596v5.265c0 .329.267.596.596.596h2.243a.596.596 0 0 1-.597-.596zM20.074 22.78h-6.651a.53.53 0 0 0-.525.525v1.436a.597.597 0 0 1 .225-.044h1.955c.249 0 .472.155.559.389l.223.602c.087.234.31.389.559.389h3.583c.329 0 .596.267.596.596v-3.37a.53.53 0 0 0-.524-.523z" style="fill:var(--color89, #fec458)"/><path fill="#f9ab49" d="M15.14 23.305a.53.53 0 0 1 .525-.525h-2.243a.53.53 0 0 0-.525.525v1.436a.597.597 0 0 1 .225-.044h1.955c.022 0 .044.002.066.005l-.003-1.397z" style="fill:var(--color90, #f9ab49)"/><path fill="#ffe181" d="M20.002 25.93h-3.583a.597.597 0 0 1-.559-.389l-.223-.602a.597.597 0 0 0-.559-.389h-1.955a.596.596 0 0 0-.596.596v5.265c0 .329.267.596.596.596h6.879a.596.596 0 0 0 .596-.596v-3.886a.597.597 0 0 0-.597-.597z" style="fill:var(--color91, #ffe181)"/><path fill="#fec458" d="M14.767 30.412v-5.265c0-.273.186-.511.45-.578a.615.615 0 0 0-.142-.019H13.12a.597.597 0 0 0-.597.597v5.265a.597.597 0 0 0 .597.597h2.242a.596.596 0 0 1-.596-.596zM32.113 22.78h-6.65a.53.53 0 0 0-.525.525v1.436a.597.597 0 0 1 .225-.044h1.955c.249 0 .472.155.559.389l.223.602c.087.234.31.389.559.389h3.585c.329 0 .596.267.596.596v-3.37a.53.53 0 0 0-.526-.523z" style="fill:var(--color89, #fec458)"/><path fill="#f9ab49" d="M27.18 23.305a.53.53 0 0 1 .525-.525h-2.243a.53.53 0 0 0-.525.525v1.436a.597.597 0 0 1 .225-.044h1.955c.022 0 .044.002.066.005l-.003-1.397z" style="fill:var(--color90, #f9ab49)"/><path fill="#ffe181" d="M32.041 25.93H28.46a.597.597 0 0 1-.559-.389l-.223-.602a.597.597 0 0 0-.559-.389h-1.955a.596.596 0 0 0-.596.596v5.265c0 .329.267.596.596.596h6.88a.596.596 0 0 0 .596-.596v-3.886a.597.597 0 0 0-.598-.596z" style="fill:var(--color91, #ffe181)"/><path fill="#fec458" d="M26.808 30.412v-5.265c0-.273.186-.511.45-.578a.615.615 0 0 0-.142-.019h-1.955a.596.596 0 0 0-.596.596v5.265c0 .329.267.596.596.596h2.243a.596.596 0 0 1-.597-.596z" style="fill:var(--color89, #fec458)"/><path d="M32.112 22.294h-2.765v-2.817a1.318 1.318 0 0 0-1.316-1.316H17.046v-3.163h7.272a1.436 1.436 0 0 0 1.434-1.431v-3.169a.485.485 0 1 0-.97 0v3.169a.464.464 0 0 1-.464.464H8.805a.464.464 0 0 1-.464-.464V1.533c0-.256.208-.464.464-.464h4.79c.193 0 .366.12.434.301l.564 1.518a1.78 1.78 0 0 0 1.661 1.155h8.065c.256 0 .464.208.464.464v3.628a.485.485 0 1 0 .97 0V1.444A1.348 1.348 0 0 0 24.406.097H8.805A1.435 1.435 0 0 0 7.372 1.53v12.037c.002.79.643 1.43 1.433 1.431h7.272v3.163H5.464a1.318 1.318 0 0 0-1.316 1.316v2.817H1.383a1.011 1.011 0 0 0-1.01 1.012v1.027a1.075 1.075 0 0 0-.372.813v5.265a1.084 1.084 0 0 0 1.082 1.082h6.88a1.084 1.084 0 0 0 1.082-1.082v-7.106c0-.558-.453-1.011-1.011-1.011H5.119v-2.818c0-.191.155-.345.346-.345h10.613v3.162h-2.653a1.01 1.01 0 0 0-1.011 1.012v1.027a1.08 1.08 0 0 0-.372.815v5.265a1.084 1.084 0 0 0 1.082 1.082h2.308a.485.485 0 1 0 0-.97h-2.308a.111.111 0 0 1-.111-.111v-5.267c0-.061.05-.111.111-.111h1.955c.047 0 .088.029.105.073l.223.602c.158.423.562.704 1.014.706h3.583c.061 0 .111.05.111.111v3.886c0 .061-.05.111-.111.111h-2.308a.485.485 0 1 0 0 .97h2.308a1.084 1.084 0 0 0 1.082-1.082v-7.106a1.009 1.009 0 0 0-1.011-1.012h-3.026v-3.161h10.985c.191 0 .345.154.346.345v2.817h-2.915c-.558 0-1.011.453-1.011 1.012v1.027a1.08 1.08 0 0 0-.372.815v5.265a1.084 1.084 0 0 0 1.082 1.082h6.88a1.083 1.083 0 0 0 1.082-1.083v-7.106a1.013 1.013 0 0 0-1.011-1.011v-.001zM24.404 1.072c.208 0 .377.169.377.377v1.704a1.461 1.461 0 0 0-.464-.077h-8.065a.804.804 0 0 1-.751-.522l-.55-1.482h9.453zM7.961 30.523h-6.88a.111.111 0 0 1-.111-.111v-5.265c0-.044.026-.084.066-.102a.116.116 0 0 1 .042-.008h1.958c.047 0 .088.029.105.073l.223.602c.159.422.563.702 1.014.704h3.583c.061 0 .111.05.111.111v3.886h-.001c0 .061-.05.111-.111.111zm.071-7.258a.04.04 0 0 1 .04.04v2.145a1.032 1.032 0 0 0-.111-.006H4.378a.112.112 0 0 1-.105-.073l-.223-.602a1.087 1.087 0 0 0-1.014-.705H1.342v-.759a.04.04 0 0 1 .04-.04l6.649-.001zm12.08.04v2.145h-.007l-.013-.001a1.899 1.899 0 0 0-.091-.005h-3.583a.116.116 0 0 1-.105-.073l-.223-.602a1.088 1.088 0 0 0-1.014-.705h-1.695v-.759a.04.04 0 0 1 .04-.04l6.65-.001a.04.04 0 0 1 .04.04zm12.04 7.107c0 .061-.05.111-.111.111h-6.88a.111.111 0 0 1-.111-.111v-5.265c0-.061.05-.111.111-.111h1.955c.047 0 .088.029.105.073l.223.602c.159.423.563.704 1.014.705h3.583c.061 0 .111.05.111.111v3.886zm-.111-4.968h-3.583a.112.112 0 0 1-.105-.073l-.223-.602a1.086 1.086 0 0 0-1.014-.705h-1.694v-.759a.04.04 0 0 1 .04-.04h6.65a.04.04 0 0 1 .04.04v2.144a1.032 1.032 0 0 0-.111-.006z" style="fill:var(--color19, #000)"/></symbol><symbol id="icon-analytics-7" viewBox="0 0 29 32"><path fill="#ff6029" d="M19.653 15.913a5.338 5.338 0 1 1-5.338-5.36 5.346 5.346 0 0 1 5.337 5.361z" style="fill:var(--color92, #ff6029)"/><path fill="#b7441c" d="M16.972 15.913a2.656 2.656 0 0 1-5.313-.016 2.657 2.657 0 1 1 5.314.015z" style="fill:var(--color93, #b7441c)"/><path fill="#daf781" d="M14.306 7.174a3.336 3.336 0 0 0 3.345-3.321 3.343 3.343 0 0 0-3.336-3.35 3.335 3.335 0 0 0-.01 6.671zM11.21 26.682a3.35 3.35 0 0 1 3.105-2.058 3.343 3.343 0 0 1 3.336 3.35 3.35 3.35 0 1 1-6.441-1.293zM5.584 6.981a3.347 3.347 0 1 0 1.221 4.576 3.328 3.328 0 0 0-1.221-4.576zm16.228 13.283a3.347 3.347 0 0 1 4.571-1.222 3.33 3.33 0 0 1 1.221 4.576 3.348 3.348 0 0 1-5.792-3.354zM2.248 19.042a3.347 3.347 0 1 0 4.556 1.226 3.36 3.36 0 0 0-4.556-1.226zm25.793-9.591a3.347 3.347 0 0 1-1.658 3.333 3.36 3.36 0 0 1-4.556-1.226 3.346 3.346 0 1 1 6.214-2.107z" style="fill:var(--color94, #daf781)"/><path fill="#92b703" d="M12.578 2.848a2.002 2.002 0 0 1 2.735-.731v.001a1.99 1.99 0 0 1 .731 2.737 2.003 2.003 0 0 1-3.466-2.006zm-9.662 8.76a1.998 1.998 0 1 0 2.005-3.455 1.998 1.998 0 0 0-2.005 3.454zm-.737 9.331a2.002 2.002 0 0 1 2.735-.731 1.992 1.992 0 0 1 .731 2.739 2.003 2.003 0 0 1-3.466-2.006zm21.538-9.32a2.002 2.002 0 1 0-.731-2.738 1.995 1.995 0 0 0 .731 2.739h-.001zm-.742 9.32a2.002 2.002 0 0 1 2.735-.731h.003a1.994 1.994 0 0 1 .728 2.738 2.003 2.003 0 0 1-3.466-2.006zm-7.662 5.299a2.002 2.002 0 1 0 .731 2.737 1.995 1.995 0 0 0-.731-2.739z" style="fill:var(--color95, #92b703)"/><path d="M28.041 23.869a3.833 3.833 0 0 1-5.245 1.411 3.866 3.866 0 0 1-1.626-4.811l-2.068-1.199a5.838 5.838 0 0 1-4.284 2.487v2.399a3.84 3.84 0 0 1-.502 7.644 3.838 3.838 0 0 1-.502-7.644v-2.399a5.839 5.839 0 0 1-4.284-2.485l-2.068 1.199a3.866 3.866 0 0 1-1.626 4.811c-.882.511-1.931.649-2.916.385s-1.823-.911-2.329-1.795a3.866 3.866 0 0 1 1.404-5.261 3.83 3.83 0 0 1 4.965.989l2.066-1.196a5.879 5.879 0 0 1 0-4.971L6.96 12.237a3.83 3.83 0 0 1-4.965.989A3.864 3.864 0 0 1 .591 7.965a3.832 3.832 0 0 1 5.245-1.413 3.866 3.866 0 0 1 1.626 4.811l2.068 1.199a5.835 5.835 0 0 1 4.284-2.485V7.675a3.837 3.837 0 0 1 .503-7.643 3.839 3.839 0 0 1 .503 7.643v2.399a5.839 5.839 0 0 1 4.284 2.485l2.068-1.199a3.866 3.866 0 0 1 1.626-4.809 3.83 3.83 0 0 1 5.245 1.411 3.866 3.866 0 0 1-1.404 5.261 3.83 3.83 0 0 1-4.965-.989l-2.066 1.196a5.879 5.879 0 0 1 0 4.971l2.066 1.196a3.83 3.83 0 0 1 4.965-.989 3.863 3.863 0 0 1 1.404 5.262zm-10.554-7.956-.002.001a.503.503 0 1 0-1.006 0 2.177 2.177 0 0 1-3.723 1.535 2.176 2.176 0 0 1 1.559-3.713.503.503 0 1 0 0-1.006 3.17 3.17 0 1 0 3.172 3.182zm6.493-3.28c.726.196 1.5.094 2.151-.283a2.859 2.859 0 0 0 1.038-3.891 2.819 2.819 0 0 0-3.87-1.042 2.859 2.859 0 0 0-1.038 3.891c.373.653.992 1.13 1.718 1.326zM5.329 7.416A2.828 2.828 0 0 0 1.46 8.458a2.859 2.859 0 0 0 1.039 3.891 2.828 2.828 0 0 0 3.869-1.042A2.858 2.858 0 0 0 5.33 7.416h-.001zM4.65 19.193a2.823 2.823 0 0 0-2.151.285 2.859 2.859 0 0 0-1.038 3.891 2.827 2.827 0 0 0 3.869 1.043 2.858 2.858 0 0 0 1.038-3.892h-.001a2.821 2.821 0 0 0-1.717-1.326zm9.666-12.492a2.846 2.846 0 0 0 2.033-4.856 2.848 2.848 0 1 0-2.033 4.856zm-2.641 20.174a2.848 2.848 0 1 0 5.255 2.199 2.848 2.848 0 0 0-5.255-2.199zm7.476-10.961a4.835 4.835 0 1 0-4.836 4.858 4.852 4.852 0 0 0 4.835-4.858l.001.001zm4.831 3.278a2.824 2.824 0 0 0-1.72 1.326 2.858 2.858 0 0 0 1.038 3.891 2.828 2.828 0 0 0 3.869-1.042 2.859 2.859 0 0 0-1.034-3.889 2.829 2.829 0 0 0-2.153-.286z" style="fill:var(--color19, #000)"/></symbol><symbol id="icon-planner" viewBox="0 0 32 32"><path fill="#bfbfbf" d="M26.759 4.816H3.819c-.691 0-1.252.56-1.252 1.252v20.669c0 .691.56 1.252 1.252 1.252h22.94c.691 0 1.252-.56 1.252-1.252V6.068c0-.691-.56-1.252-1.252-1.252z" style="fill:var(--color96, #bfbfbf)"/><path fill="#f9f7f8" d="M24.658 25.828H1.719c-.691 0-1.252-.56-1.252-1.252V6.973h25.444v17.6a1.249 1.249 0 0 1-1.253 1.254z" style="fill:var(--color32, #f9f7f8)"/><path fill="#efedef" d="M25.911 6.973v17.6a1.251 1.251 0 0 1-1.252 1.252h-1.195a1.251 1.251 0 0 0 1.252-1.252v-17.6h1.195z" style="fill:var(--color33, #efedef)"/><path fill="#ee6161" d="M25.911 6.976H.467V3.907c0-.691.56-1.252 1.252-1.252h22.939c.691 0 1.252.56 1.252 1.252l.002 3.069z" style="fill:var(--color28, #ee6161)"/><path fill="#e2e2e2" d="M6.547 11.046a1.529 1.529 0 1 1-3.058 0 1.529 1.529 0 0 1 3.058 0zM11.994 11.046a1.529 1.529 0 1 1-3.058 0 1.529 1.529 0 0 1 3.058 0zM17.442 11.046a1.529 1.529 0 1 1-3.058 0 1.529 1.529 0 0 1 3.058 0zM22.89 11.046a1.529 1.529 0 1 1-3.058 0 1.529 1.529 0 0 1 3.058 0zM6.547 16.403a1.529 1.529 0 1 1-3.058 0 1.529 1.529 0 0 1 3.058 0zM11.994 16.403a1.529 1.529 0 1 1-3.058 0 1.529 1.529 0 0 1 3.058 0zM17.442 16.403a1.529 1.529 0 1 1-3.058 0 1.529 1.529 0 0 1 3.058 0zM22.89 16.403a1.529 1.529 0 1 1-3.058 0 1.529 1.529 0 0 1 3.058 0zM6.547 21.758a1.529 1.529 0 1 1-3.058 0 1.529 1.529 0 0 1 3.058 0zM11.994 21.758a1.529 1.529 0 1 1-3.058 0 1.529 1.529 0 0 1 3.058 0zM17.442 21.758a1.529 1.529 0 1 1-3.058 0 1.529 1.529 0 0 1 3.058 0z" style="fill:var(--color97, #e2e2e2)"/><path fill="#e94444" d="M25.911 3.907v3.069h-1.195V3.907c0-.691-.56-1.252-1.252-1.252h1.195c.691 0 1.252.56 1.252 1.252z" style="fill:var(--color29, #e94444)"/><path fill="#fac600" d="M31.446 24.912a6.097 6.097 0 1 1-12.195 0 6.097 6.097 0 0 1 12.195 0z" style="fill:var(--color98, #fac600)"/><path fill="#fe9738" d="m25.93 21.855.599 1.213a.647.647 0 0 0 .486.354l1.34.192a.647.647 0 0 1 .358 1.102l-.97.945a.646.646 0 0 0-.186.574l.229 1.334a.646.646 0 0 1-.938.68l-1.198-.63a.645.645 0 0 0-.601 0l-1.198.63a.647.647 0 0 1-.937-.68l.229-1.334a.646.646 0 0 0-.186-.574l-.97-.945a.646.646 0 0 1 .358-1.102l1.34-.192a.647.647 0 0 0 .486-.354l.599-1.213a.648.648 0 0 1 1.16 0h-.003z" style="fill:var(--color34, #fe9738)"/><path fill="#fe860a" d="M27.743 25.665a.646.646 0 0 0-.186.574l.229 1.334a.647.647 0 0 1-.938.682l-.493-.259a.751.751 0 0 0 .121-.56l-.271-1.576a.766.766 0 0 1 .22-.676l1.146-1.116a.752.752 0 0 0 .231-.528l.552.08a.647.647 0 0 1 .358 1.102l-.969.943z" style="fill:var(--color35, #fe860a)"/><path fill="#e8b800" d="M31.446 24.912a6.099 6.099 0 0 1-9.033 5.345 6.099 6.099 0 0 0 4.776-11.158 6.1 6.1 0 0 1 4.258 5.815z" style="fill:var(--color99, #e8b800)"/><path fill="#5a5a5a" d="M5.77 4.757a1.113 1.113 0 0 1-1.113-1.112V1.666a1.113 1.113 0 1 1 2.226 0v1.979c0 .615-.499 1.112-1.113 1.112zM13.189 4.757a1.113 1.113 0 0 1-1.113-1.112V1.666a1.113 1.113 0 1 1 2.226 0v1.979c0 .615-.499 1.112-1.113 1.112zM20.608 4.757a1.114 1.114 0 0 1-1.113-1.112V1.666a1.113 1.113 0 1 1 2.226 0v1.979c0 .615-.499 1.112-1.113 1.112z" style="fill:var(--color100, #5a5a5a)"/><path fill="#444" d="M6.883 1.667v1.979a1.112 1.112 0 0 1-1.669.963c.344-.199.557-.566.557-.964V1.666c0-.398-.212-.765-.557-.964a1.112 1.112 0 0 1 1.669.964zM14.302 1.667v1.979a1.115 1.115 0 0 1-1.67.963c.345-.199.557-.566.557-.964V1.666a1.107 1.107 0 0 0-.557-.964 1.112 1.112 0 0 1 1.669.964zM21.72 1.667v1.979a1.112 1.112 0 0 1-1.668.963c.344-.199.556-.566.556-.964V1.666a1.11 1.11 0 0 0-.556-.964 1.112 1.112 0 0 1 1.669.964z" style="fill:var(--color101, #444)"/><path fill="#cecece" d="M6.544 11.046a1.531 1.531 0 0 1-2.823.816A1.531 1.531 0 0 0 5.277 9.54a1.532 1.532 0 0 1 1.267 1.507zM11.994 11.046a1.531 1.531 0 0 1-2.823.816 1.531 1.531 0 0 0 1.556-2.322 1.532 1.532 0 0 1 1.267 1.507zM17.442 11.046a1.531 1.531 0 0 1-2.823.816 1.531 1.531 0 0 0 1.556-2.322 1.532 1.532 0 0 1 1.267 1.507zM22.89 11.046a1.533 1.533 0 0 1-2.823.815 1.534 1.534 0 0 0 1.556-2.322 1.532 1.532 0 0 1 1.267 1.507zM6.544 16.403a1.531 1.531 0 0 1-2.823.815 1.531 1.531 0 0 0 1.556-2.322 1.532 1.532 0 0 1 1.267 1.507zM11.994 16.403a1.531 1.531 0 0 1-2.823.815 1.531 1.531 0 0 0 1.556-2.322 1.532 1.532 0 0 1 1.267 1.507zM17.442 16.403a1.531 1.531 0 0 1-2.823.815 1.531 1.531 0 0 0 1.556-2.322 1.532 1.532 0 0 1 1.267 1.507zM22.89 16.403a1.533 1.533 0 0 1-2.823.815 1.534 1.534 0 0 0 1.556-2.322 1.532 1.532 0 0 1 1.267 1.507zM6.544 21.758a1.531 1.531 0 0 1-2.823.814 1.532 1.532 0 0 0 1.556-2.321 1.53 1.53 0 0 1 1.267 1.506zM11.994 21.758a1.531 1.531 0 0 1-2.823.814 1.532 1.532 0 0 0 1.556-2.321 1.53 1.53 0 0 1 1.267 1.506zM17.442 21.758a1.531 1.531 0 0 1-2.823.814 1.532 1.532 0 0 0 1.556-2.321 1.53 1.53 0 0 1 1.267 1.506z" style="fill:var(--color102, #cecece)"/><path d="M28.421 23.156c.42.059.769.354.899.758a1.11 1.11 0 0 1-.283 1.142l-.97.945a.179.179 0 0 0-.052.158l.228 1.334a1.112 1.112 0 0 1-1.616 1.174l-1.198-.63a.182.182 0 0 0-.167 0l-1.198.63a1.113 1.113 0 0 1-1.615-1.174l.229-1.334a.179.179 0 0 0-.052-.158l-.97-.945a1.114 1.114 0 0 1 .617-1.899l1.34-.192a.178.178 0 0 0 .135-.098l.599-1.213a1.114 1.114 0 0 1 1.998 0l.599 1.213a.18.18 0 0 0 .135.098l1.34.192zm-1.005 2.174.97-.945h.003a.18.18 0 0 0-.1-.306l-1.34-.192a1.113 1.113 0 0 1-.838-.609l-.599-1.213a.18.18 0 0 0-.32 0l-.599 1.213a1.113 1.113 0 0 1-.839.609l-1.34.192a.179.179 0 0 0-.099.305l.97.945c.262.256.381.625.319.986l-.229 1.334a.179.179 0 0 0 .26.191l1.198-.63a1.112 1.112 0 0 1 1.037 0l1.198.63a.179.179 0 0 0 .26-.191l-.229-1.334c-.062-.361.057-.73.319-.986z" style="fill:var(--color19, #000)"/><path d="M28.478 19.144v-8.813a.467.467 0 1 0-.934 0v8.391a6.506 6.506 0 0 0-1.165-.297V5.277h.383a.785.785 0 0 1 .784.784v2.073a.467.467 0 1 0 .934 0V6.067a1.724 1.724 0 0 0-1.719-1.719h-.383v-.441a1.723 1.723 0 0 0-1.719-1.716h-2.471v-.525a1.58 1.58 0 1 0-3.16 0v.525h-4.259v-.525a1.578 1.578 0 0 0-2.37-1.368 1.58 1.58 0 0 0-.79 1.368v.525H7.35v-.525a1.58 1.58 0 1 0-3.16 0v.525H1.719A1.723 1.723 0 0 0 0 3.907v20.668a1.724 1.724 0 0 0 1.719 1.719h.383v.441a1.724 1.724 0 0 0 1.719 1.719h16.007a6.562 6.562 0 1 0 8.65-9.311zM19.962 1.666a.646.646 0 1 1 1.292 0v1.979a.647.647 0 0 1-.645.646.647.647 0 0 1-.645-.646l-.001-1.979zm-6.773-.645c.357 0 .646.289.646.646v1.979a.646.646 0 1 1-1.292 0V1.667c0-.357.289-.646.646-.646zm-8.064.645a.646.646 0 1 1 1.292 0v1.979a.646.646 0 1 1-1.292 0V1.666zM1.719 3.123H4.19v.522a1.58 1.58 0 1 0 3.16 0v-.522h4.259v.522a1.58 1.58 0 0 0 3.16 0v-.522h4.259v.522a1.58 1.58 0 1 0 3.16 0v-.522h2.471a.785.785 0 0 1 .784.784v2.601H.934v-2.6c0-.433.351-.784.784-.785zm2.1 24.401a.785.785 0 0 1-.784-.784v-.441h4.497a.467.467 0 1 0 0-.934H1.719a.785.785 0 0 1-.784-.784V7.445h24.51V18.35h-.094a6.574 6.574 0 0 0-6.55 7.012H9.697a.467.467 0 1 0 0 .934h9.235c.091.421.224.831.396 1.226l-15.509.003zm15.9-2.609a5.63 5.63 0 1 1 11.261 0 5.636 5.636 0 0 1-5.63 5.628v.003a5.63 5.63 0 0 1-5.63-5.63z" style="fill:var(--color19, #000)"/><path d="M3.021 11.046a1.997 1.997 0 1 1 3.995 0 1.997 1.997 0 0 1-3.996 0zm.934 0a1.062 1.062 0 1 0 2.124 0 1.062 1.062 0 0 0-2.124 0zM12.31 11.81a1.996 1.996 0 1 1-3.686-1.527 1.996 1.996 0 0 1 3.685 1.526zm-.783-.764c0-.587-.475-1.062-1.062-1.062v.001a1.062 1.062 0 1 0 1.062 1.061zM17.91 11.046a1.996 1.996 0 1 1-3.992 0 1.996 1.996 0 0 1 3.992 0zm-.935 0c0-.587-.475-1.062-1.062-1.062v.001a1.062 1.062 0 1 0 1.062 1.061zM23.359 11.046a1.996 1.996 0 1 1-3.992 0 1.996 1.996 0 0 1 3.992 0zm-.935 0c0-.587-.475-1.062-1.062-1.062v.001a1.061 1.061 0 1 0 1.062 1.061zM3.021 16.402a1.996 1.996 0 1 1 3.994 0 1.996 1.996 0 0 1-3.995 0zm.934 0a1.062 1.062 0 1 0 2.124 0 1.062 1.062 0 0 0-2.124 0zM12.31 17.165a1.996 1.996 0 1 1-3.686-1.527 1.996 1.996 0 0 1 3.685 1.526zm-.783-.764c0-.587-.475-1.062-1.062-1.062v.001a1.062 1.062 0 1 0 1.062 1.061zM17.91 16.401a1.997 1.997 0 1 1-3.994 0 1.997 1.997 0 0 1 3.994 0zm-.935 0c0-.587-.475-1.062-1.062-1.062v.001a1.062 1.062 0 1 0 1.062 1.061zM23.359 16.401a1.997 1.997 0 1 1-3.994 0 1.997 1.997 0 0 1 3.994 0zm-.935 0c0-.587-.475-1.062-1.062-1.062v.001a1.061 1.061 0 1 0 1.062 1.061zM3.173 20.994a1.997 1.997 0 1 1 3.688 1.528 1.997 1.997 0 0 1-3.687-1.528zm.782.764a1.062 1.062 0 1 0 2.124 0 1.062 1.062 0 0 0-2.124 0zM11.229 19.914a1.996 1.996 0 1 1-1.527 3.688 1.996 1.996 0 0 1 1.526-3.688zm-.764.782c-.587 0-1.062.475-1.062 1.062h.001a1.062 1.062 0 1 0 1.061-1.062zM17.758 22.522a1.996 1.996 0 1 1-3.686-1.527 1.996 1.996 0 0 1 3.685 1.526zm-.783-.764c0-.587-.475-1.062-1.062-1.062v.001a1.062 1.062 0 1 0 1.062 1.061z" style="fill:var(--color19, #000)"/></symbol><symbol id="icon-call" viewBox="0 0 32 32"><path fill="#fff" d="M26.68 20.507a15.26 15.26 0 0 1-4.707-.747 1.303 1.303 0 0 0-1.347.32l-2.093 2.627c-3.773-1.8-7.307-5.2-9.187-9.107l2.6-2.213a1.36 1.36 0 0 0 .32-1.36 14.882 14.882 0 0 1-.747-4.707c0-.72-.6-1.32-1.32-1.32H5.586c-.72 0-1.587.32-1.587 1.32C3.999 17.707 14.306 28 26.679 28c.947 0 1.32-.84 1.32-1.573v-4.6c0-.72-.6-1.32-1.32-1.32z" style="fill:var(--color103, #fff)"/></symbol><symbol id="icon-clickstream" viewBox="0 0 31 32"><path fill="#13bf6d" d="M18.685 15.789a4.413 4.413 0 0 1-.633 2.283h-2.084a.587.587 0 0 1-.586-.587V15.91a1.106 1.106 0 1 0-2.212 0v4.172a4.428 4.428 0 1 1 5.514-4.293v-.001z" style="fill:var(--color104, #13bf6d)"/><path fill="#fff" d="M19.957 21.959h-6.929a.632.632 0 0 0-.632.632v1.997h8.194v-1.997a.634.634 0 0 0-.634-.632z" style="fill:var(--color103, #fff)"/><path fill="#72c1e8" d="M20.946 24.588h-8.904a.39.39 0 0 0-.39.39v6.627h9.686v-6.627a.39.39 0 0 0-.392-.391z" style="fill:var(--color105, #72c1e8)"/><path fill="#ffb69f" d="M18.714 18.072h-2.746a.587.587 0 0 1-.586-.587v-1.576a1.107 1.107 0 0 0-1.659-.958 1.107 1.107 0 0 0-.553.958v6.051h6.648v-2.783a1.104 1.104 0 0 0-1.104-1.104z" style="fill:var(--color106, #ffb69f)"/><path fill="#c5e5ff" d="M19.642 27.683a.315.315 0 1 0 .631 0v-1.681a.318.318 0 0 0-.316-.315h-6.923a.315.315 0 1 0 0 .63h6.608v1.367zm0 1.636a.315.315 0 1 0 .63 0v-.378a.315.315 0 1 0-.63 0v.378z" style="fill:var(--color107, #c5e5ff)"/><path fill="#fc5d3d" d="M4.348 5.413c0 1.114-2.017 4.107-2.017 4.107S.314 6.527.314 5.413a2.017 2.017 0 1 1 4.034 0z" style="fill:var(--color108, #fc5d3d)"/><path fill="#f0c020" d="M5.352 24.317a2.358 2.358 0 1 1-4.717 0 2.358 2.358 0 0 1 4.717 0z" style="fill:var(--color109, #f0c020)"/><path fill="#fc5d3d" d="m30.498 19.756-1.851 1.851-1.851-1.851a1.032 1.032 0 0 1 1.46-1.46l.391.391.391-.391a1.032 1.032 0 0 1 1.46 1.46z" style="fill:var(--color108, #fc5d3d)"/><path fill="#f0c020" d="m15.544.813.522.731.874.281a.442.442 0 0 1 .214.693l-.543.705.017.921a.443.443 0 0 1-.595.425l-.85-.308-.85.308a.443.443 0 0 1-.595-.425l.017-.921-.542-.705a.445.445 0 0 1 .216-.694l.874-.281.522-.731a.446.446 0 0 1 .722.001z" style="fill:var(--color109, #f0c020)"/><path fill="#ffb69f" d="M29.504 5.642a1.47 1.47 0 1 1-2.939 0 1.47 1.47 0 0 1 2.939 0z" style="fill:var(--color106, #ffb69f)"/><path fill="#72c1e8" d="M28.576 7.111h-1.081a2.32 2.32 0 0 0-2.319 2.319v1.164h5.72V9.43a2.32 2.32 0 0 0-2.319-2.319z" style="fill:var(--color105, #72c1e8)"/><path d="M17.073 16.988a.314.314 0 0 0 .393-.208 3.357 3.357 0 1 0-5.936.968.314.314 0 1 0 .511-.367 2.727 2.727 0 1 1 4.823-.786.313.313 0 0 0 .209.394v.001zM21.337 28.773a.314.314 0 0 0-.312.315v2.517a.315.315 0 1 0 .63 0v-2.517a.316.316 0 0 0-.317-.314zM21.652 27.829a.315.315 0 1 1-.63 0 .315.315 0 0 1 .63 0zM17.197 12.463a.313.313 0 0 0-.058-.44.322.322 0 0 0-.442.058.314.314 0 1 0 .499.383h.001zM2.646 5.413v-.194a.315.315 0 1 0-.63 0v.194a.315.315 0 1 0 .63 0zM3.716 23.363l-.689.531-.59-.624a.314.314 0 1 0-.458.432l.785.831a.315.315 0 0 0 .421.033l.914-.705a.315.315 0 0 0-.384-.499v.002z" style="fill:var(--color19, #000)"/><path d="M25.363 19.883h.001a.315.315 0 1 1 0 .63h-1.758a.314.314 0 0 1-.21-.08l-4.442-3.981a4.716 4.716 0 0 1-.383 1.306h.144a1.421 1.421 0 0 1 1.419 1.419v2.485a.948.948 0 0 1 .773.93v1.683h.041c.389 0 .704.316.705.705v1.592a.315.315 0 1 1-.63 0V24.98a.077.077 0 0 0-.076-.076h-8.905a.077.077 0 0 0-.076.076v6.627a.315.315 0 1 1-.63 0V24.98a.707.707 0 0 1 .705-.705h.041v-1.682a.947.947 0 0 1 .772-.929v-1.342a4.769 4.769 0 0 1-2.403-1.704l-2.745 3.939a.316.316 0 0 1-.258.135H6.019a.315.315 0 1 1 0-.63h1.265l2.8-4.021a4.69 4.69 0 0 1-.565-2.096l-3.226-2.538H5.059a.315.315 0 1 1 0-.63h1.342a.32.32 0 0 1 .195.067l2.96 2.329a4.728 4.728 0 0 1 1.873-3.191L7.29 6.561H5.627a.315.315 0 1 1 0-.63h1.819c.098 0 .191.047.25.125l4.262 5.584a4.709 4.709 0 0 1 2.59-.583l.203-5.027a.314.314 0 1 1 .629.025l-.205 5.082c.27.053.535.129.791.228a.312.312 0 0 1 .18.408.321.321 0 0 1-.406.179 4.115 4.115 0 1 0-2.885 7.706v-3.749a1.42 1.42 0 0 1 2.84 0v1.578c.001.149.121.27.271.272h1.904a4.14 4.14 0 0 0 .499-1.969 4.082 4.082 0 0 0-.798-2.434.317.317 0 0 1 .067-.441.326.326 0 0 1 .441.068c.144.196.273.403.386.619l3.299-4.842a.315.315 0 0 1 .26-.137h1.907a.315.315 0 1 1 0 .63h-1.74l-3.433 5.038c.145.438.226.895.239 1.357l4.729 4.236h1.638zm-5.086 2.708a.319.319 0 0 0-.318-.317H13.03a.319.319 0 0 0-.318.317v1.682h7.564v-1.682zm-.773-.947v-2.468a.79.79 0 0 0-.79-.79h-2.746a.902.902 0 0 1-.9-.902v-1.576a.79.79 0 0 0-1.581-.012v5.747h6.018zM28.647 18.242l.169-.169h.003a1.347 1.347 0 0 1 1.904 1.904l-1.851 1.851a.314.314 0 0 1-.445 0l-1.851-1.851a1.347 1.347 0 0 1 1.904-1.904l.169.169zm0 2.92 1.629-1.629a.718.718 0 0 0-1.015-1.015l-.391.391a.315.315 0 0 1-.446 0l-.391-.391a.717.717 0 1 0-1.015 1.015l1.629 1.629zM.321 24.317a2.673 2.673 0 1 1 5.347 0 2.673 2.673 0 0 1-5.347 0zm.629 0a2.044 2.044 0 1 0 4.088 0 2.044 2.044 0 0 0-4.088 0zM1.091 7.473a.314.314 0 1 0 0 .001z" style="fill:var(--color19, #000)"/><path d="M.541 6.337a.31.31 0 0 0 .198-.397 1.856 1.856 0 0 1-.111-.526 1.704 1.704 0 0 1 2.56-1.494c.53.309.853.88.844 1.494.015.757-1.286 2.884-1.703 3.53-.173-.269-.34-.542-.499-.809a.325.325 0 0 0-.432-.11.311.311 0 0 0-.109.432c.42.708.778 1.237.78 1.24a.315.315 0 0 0 .522 0c.573-.841 2.057-3.216 2.07-4.281a2.33 2.33 0 0 0-3.498-2.019A2.333 2.333 0 0 0-.003 5.416c.01.248.058.492.144.725a.32.32 0 0 0 .398.199v-.002zM13.422 4.14l.015-.811-.476-.617a.76.76 0 0 1 .368-1.186l.774-.25.461-.646a.762.762 0 0 1 1.236 0l.461.646.774.25a.759.759 0 0 1 .368 1.186l-.476.617.015.811a.758.758 0 0 1-1.018.727l-.742-.269-.742.269a.76.76 0 0 1-1.018-.727zm.974-2.296-.874.281.001.001a.13.13 0 0 0-.063.202l.542.704a.308.308 0 0 1 .065.198l-.017.921c-.001.043.019.083.054.108s.079.031.12.017l.85-.308a.315.315 0 0 1 .214 0l.85.308a.129.129 0 0 0 .174-.124l-.017-.921a.317.317 0 0 1 .066-.198l.543-.705c.026-.033.034-.077.021-.117s-.044-.072-.084-.085l-.874-.281a.323.323 0 0 1-.16-.117l-.521-.731c-.024-.034-.063-.055-.105-.055s-.081.02-.105.055l-.522.731a.314.314 0 0 1-.16.117zM29.295 4.379c.696.695.698 1.823.004 2.521a2.638 2.638 0 0 1 1.91 2.531v1.164a.315.315 0 1 1-.63 0V9.431a2.007 2.007 0 0 0-2.005-2.005h-1.081a2.007 2.007 0 0 0-2.005 2.005v1.164a.315.315 0 1 1-.63 0V9.431A2.637 2.637 0 0 1 26.769 6.9a1.784 1.784 0 0 1 2.525-2.521zm-.105 1.263a1.155 1.155 0 1 0-2.31 0 1.155 1.155 0 0 0 2.31 0zM3.718 12.776H.866a.315.315 0 1 0 0 .63h2.852a.315.315 0 1 0 0-.63zM3.718 14.488H.866a.315.315 0 1 0 0 .63h2.852a.315.315 0 1 0 0-.63zM3.718 16.2H.866a.315.315 0 1 0 0 .63h2.852a.315.315 0 1 0 0-.63z" style="fill:var(--color19, #000)"/></symbol><symbol id="icon-email" viewBox="0 0 32 32"><path fill="#fff" d="M26.667 5.333H5.334A2.663 2.663 0 0 0 2.681 8l-.013 16c0 1.467 1.2 2.667 2.667 2.667h21.333c1.467 0 2.667-1.2 2.667-2.667V8c0-1.467-1.2-2.667-2.667-2.667zm0 5.334L16 17.334 5.333 10.667V8L16 14.667 26.667 8v2.667z" style="fill:var(--color103, #fff)"/></symbol><symbol id="icon-filled-outline" viewBox="0 0 32 32"><path fill="#645960" d="M19.2 21.01v-2.344h-5.333v2.344c0 1.254-.371 2.48-1.067 3.523h7.467A6.355 6.355 0 0 1 19.2 21.01z" style="fill:var(--color110, #645960)"/><path fill="#4b4348" d="M19.2 20.267h-5.333v.744c0 .108-.004.216-.009.323h5.352a6.964 6.964 0 0 1-.009-.323v-.744z" style="fill:var(--color111, #4b4348)"/><path fill="#e6e6e6" d="M2.667.533H30.4c.589 0 1.067.478 1.067 1.067v16.533H1.6V1.6c0-.589.478-1.067 1.067-1.067z" style="fill:var(--color112, #e6e6e6)"/><path fill="#ccc" d="M4.267 2.133v3.2h25.6v-3.2h-25.6zM22.933 13.867h6.933V17.6h-6.933v-3.733zM13.333 13.867H20.8v4.267h-7.467v-4.267zM4.267 7.467H11.2v4.267H4.267V7.467zM22.933 7.467h6.933v4.267h-6.933V7.467zM13.333 7.467H20.8v4.267h-7.467V7.467zM4.267 13.867H11.2v3.2H4.267v-3.2z" style="fill:var(--color113, #ccc)"/><path fill="#f55441" d="M22.4 14.4h6.933v3.733H22.4V14.4z" style="fill:var(--color114, #f55441)"/><path fill="#ffaf00" d="M12.8 14.4h7.467v4.267H12.8V14.4z" style="fill:var(--color115, #ffaf00)"/><path fill="#315a70" d="M1.6 17.6h29.867v2.133a1.066 1.066 0 0 1-1.066 1.066H2.668a1.066 1.066 0 0 1-1.066-1.066V17.6z" style="fill:var(--color116, #315a70)"/><path fill="#ffaf00" d="M3.733 2.667v3.2h25.6v-3.2h-25.6z" style="fill:var(--color115, #ffaf00)"/><path fill="#6ad3d3" d="M3.733 8h6.933v4.267H3.733V8z" style="fill:var(--color117, #6ad3d3)"/><path fill="#19af19" d="M22.4 8h6.933v4.267H22.4V8z" style="fill:var(--color118, #19af19)"/><path fill="#f55441" d="M12.8 8h7.467v4.267H12.8V8z" style="fill:var(--color114, #f55441)"/><path fill="#19af19" d="M3.733 14.4h6.933v3.2H3.733v-3.2z" style="fill:var(--color118, #19af19)"/><path fill="#645960" d="M5.867 16.533a5.333 5.333 0 0 1 5.333 5.333v4.267a5.333 5.333 0 0 1-10.666 0v-4.267a5.333 5.333 0 0 1 5.333-5.333z" style="fill:var(--color110, #645960)"/><path fill="#e6e6e6" d="M.533 18.667H11.2v10.667H.533V18.667z" style="fill:var(--color112, #e6e6e6)"/><path fill="#ccc" d="M.533 28.267v1.067H11.2v-4.668A17.521 17.521 0 0 1 .533 28.267z" style="fill:var(--color113, #ccc)"/><path fill="#e6e6e6" d="M23.467 22.933H28.8v8.533h-5.333v-8.533z" style="fill:var(--color112, #e6e6e6)"/><path fill="#ccc" d="M23.467 28.421v3.046H28.8v-8.013a17.7 17.7 0 0 1-5.333 4.967z" style="fill:var(--color113, #ccc)"/><path fill="#645960" d="M23.467 29.333H28.8v2.133h-5.333v-2.133z" style="fill:var(--color110, #645960)"/><path fill="#ccc" d="M.533 18.667H11.2v.533H.533v-.533z" style="fill:var(--color113, #ccc)"/><path fill="#ffaf00" d="M2.667 20.8h6.4v2.133h-6.4V20.8z" style="fill:var(--color115, #ffaf00)"/><path d="M2.667 0H30.4A1.602 1.602 0 0 1 32 1.6v18.133a1.602 1.602 0 0 1-1.6 1.6H19.744a5.8 5.8 0 0 0 .966 2.904.532.532 0 0 1-.444.829h-7.467a.532.532 0 0 1-.444-.829 5.791 5.791 0 0 0 .967-2.904h-1.59V30.4a1.602 1.602 0 0 1-1.6 1.6H1.599a1.602 1.602 0 0 1-1.6-1.6V17.6a1.601 1.601 0 0 1 1.067-1.508V1.6a1.602 1.602 0 0 1 1.6-1.6zM30.4 1.067H2.667a.533.533 0 0 0-.533.533V16h1.067v-1.6a.532.532 0 0 1 .533-.533h6.933a.534.534 0 0 1 .533.533v2.009c.2.179.352.405.442.658h.625V14.4a.532.532 0 0 1 .533-.533h7.467a.534.534 0 0 1 .533.533v2.667h1.067V14.4a.532.532 0 0 1 .533-.533h6.933a.532.532 0 0 1 .533.533v2.667h1.067V1.6a.533.533 0 0 0-.533-.533zm-1.6 16v-2.133h-5.867v2.133H28.8zm-15.467 0h6.4v-2.133h-6.4v2.133zM10.133 16v-1.067H4.266V16h5.867zm0 1.067H1.6a.533.533 0 0 0-.533.533v.533h9.6V17.6a.533.533 0 0 0-.533-.533zm.534 2.133h-9.6v9.6h9.6v-9.6zM1.6 30.933h8.533a.534.534 0 0 0 .533-.533v-.533h-9.6v.533c0 .294.239.533.533.533zM19.349 24a6.86 6.86 0 0 1-.676-2.667h-4.282A6.868 6.868 0 0 1 13.716 24h5.632zm-7.616-3.733H30.4a.533.533 0 0 0 .533-.533v-1.6h-19.2v2.133z" style="fill:var(--color19, #000)"/><path d="M17.067 19.2a.533.533 0 1 1-1.066 0 .533.533 0 0 1 1.066 0zM29.333 6.4h-25.6a.533.533 0 0 1-.533-.533v-3.2c0-.295.239-.533.533-.533h25.6c.294 0 .533.239.533.533v3.2a.533.533 0 0 1-.533.533zM28.8 3.2H4.267v2.133H28.8V3.2zM10.667 12.8H3.734a.533.533 0 0 1-.533-.533V8c0-.295.239-.533.533-.533h6.933c.295 0 .533.239.533.533v4.267a.533.533 0 0 1-.533.533zm-.534-4.267H4.266v3.2h5.867v-3.2zM22.4 7.467h6.933c.295 0 .533.239.533.533v4.267a.533.533 0 0 1-.533.533H22.4a.533.533 0 0 1-.533-.533V8c0-.295.239-.533.533-.533zm.533 4.266H28.8v-3.2h-5.867v3.2zM12.8 7.467h7.467c.295 0 .533.239.533.533v4.267a.533.533 0 0 1-.533.533H12.8a.533.533 0 0 1-.533-.533V8c0-.295.239-.533.533-.533zm.533 4.266h6.4v-3.2h-6.4v3.2zM28.8 32a.533.533 0 0 0 .533-.533v-8.533a.533.533 0 0 0-.533-.533h-5.333a.532.532 0 0 0-.533.533v8.533c0 .294.239.533.533.533H28.8zm-2.667-1.067H24v-1.067h4.267v1.067h-2.133zm2.134-2.133v-5.333H24V28.8h4.267z" style="fill:var(--color19, #000)"/><path d="M26.667 30.4a.533.533 0 1 1-1.066 0 .533.533 0 0 1 1.066 0zM24.533 24.533h3.2V25.6h-3.2v-1.067zM24.533 26.667h3.2v1.067h-3.2v-1.067zM6.4 30.4a.533.533 0 1 1-1.066 0 .533.533 0 0 1 1.066 0zM9.067 23.467h-6.4a.533.533 0 0 1-.533-.533v-2.133c0-.295.239-.533.533-.533h6.4c.294 0 .533.239.533.533v2.133a.533.533 0 0 1-.533.533zm-.534-2.134H3.2V22.4h5.333v-1.067zM7.467 24.533H9.6V25.6H7.467v-1.067zM7.467 26.667H9.6v1.067H7.467v-1.067zM4.8 24.533h2.133V25.6H4.8v-1.067zM4.8 26.667h2.133v1.067H4.8v-1.067zM2.133 24.533h2.133V25.6H2.133v-1.067zM2.133 26.667h2.133v1.067H2.133v-1.067z" style="fill:var(--color19, #000)"/></symbol><symbol id="icon-group" viewBox="0 0 32 32"><path fill="#c3da40" d="M7.319 10.667H1.294c-.262 0-.474-.23-.474-.514V8.709c0-2.091 1.561-3.785 3.487-3.785.925 0 1.812.398 2.466 1.108s1.022 1.673 1.022 2.677v1.444c0 .137-.05.268-.14.364s-.21.15-.336.15z" style="fill:var(--color119, #c3da40)"/><path fill="#ff62a7" d="M11.078 22.488a3.078 3.078 0 0 1-1.339-1.56 3.189 3.189 0 0 1-1.944-2.959c-.026-1.738 1.376-3.169 3.133-3.2h3.99c1.746.055 3.133 1.471 3.133 3.199s-1.387 3.145-3.133 3.199h-3.092c-.026.273-.016.547.032.817l.143.833c.009.052-.014.105-.059.135s-.103.029-.148-.001l-.716-.464z" style="fill:var(--color120, #ff62a7)"/><path fill="#fc5479" d="M18.051 18.336a3.115 3.115 0 0 0-3.066-3.156h-3.901c-.427 0-.849.092-1.237.269a5.026 5.026 0 0 0 5.043 4.654h2.637a3.205 3.205 0 0 0 .525-1.767z" style="fill:var(--color121, #fc5479)"/><path fill="#31d2f7" d="M19.384 20.326c.099-.413.129-.839.088-1.262h-3.908c-1.44.026-2.784-.722-3.518-1.958s-.746-2.77-.031-4.017 2.047-2.015 3.487-2.011h5.052a4.036 4.036 0 0 1 4.061 3.945 3.978 3.978 0 0 1-2.486 3.743 4.252 4.252 0 0 1-1.99 2.118l-.75.432c-.047.027-.106.024-.15-.008s-.064-.088-.051-.14l.196-.841z" style="fill:var(--color122, #31d2f7)"/><path fill="#13ace8" d="M14.787 16.093c-.016-1.044.401-2.05 1.157-2.794s1.788-1.163 2.865-1.164h4.576a4.178 4.178 0 0 0-2.789-1.059h-5.074c-1.447-.004-2.785.746-3.503 1.963s-.707 2.714.031 3.92c.737 1.206 2.087 1.936 3.534 1.911h.496a3.801 3.801 0 0 1-1.292-2.778z" style="fill:var(--color123, #13ace8)"/><path fill="#ffcf59" d="M31.115 10.667H25.09c-.262 0-.473-.23-.474-.514V8.709c0-1.004.367-1.967 1.021-2.677s1.541-1.109 2.466-1.109c1.926 0 3.487 1.695 3.487 3.785v1.444c0 .137-.05.268-.139.364s-.21.151-.336.15z" style="fill:var(--color124, #ffcf59)"/><path fill="#ff62a7" d="M7.32 29.949H1.294c-.126 0-.246-.054-.335-.151S.82 29.57.82 29.434V27.99c0-2.09 1.561-3.785 3.487-3.785S7.794 25.9 7.794 27.99v1.444c0 .284-.212.515-.474.515z" style="fill:var(--color120, #ff62a7)"/><path fill="#31d2f7" d="M31.115 29.949H25.09c-.262 0-.474-.231-.474-.515V27.99c0-1.004.367-1.966 1.021-2.676s1.541-1.109 2.466-1.109c1.926 0 3.487 1.695 3.487 3.785v1.444c0 .137-.05.268-.139.364s-.21.151-.336.151z" style="fill:var(--color122, #31d2f7)"/><path fill="#adbc15" d="M3.553 10.152V8.708c0-1.529.864-2.908 2.19-3.495a3.365 3.365 0 0 0-1.366-.29C2.413 4.923.82 6.618.82 8.708v1.444c0 .284.217.514.484.514h2.733c-.128 0-.251-.054-.342-.15s-.142-.227-.142-.364z" style="fill:var(--color125, #adbc15)"/><path fill="#ffb55c" d="M26.938 10.152V8.708c0-1.529.864-2.908 2.19-3.495a3.365 3.365 0 0 0-1.366-.29c-1.964 0-3.557 1.695-3.557 3.785v1.444c0 .284.217.514.484.514h2.733c-.128 0-.251-.054-.342-.15s-.142-.227-.142-.364z" style="fill:var(--color126, #ffb55c)"/><path fill="#fc5479" d="M3.553 29.434V27.99c0-1.529.864-2.907 2.19-3.495a3.365 3.365 0 0 0-1.366-.29C2.413 24.205.82 25.9.82 27.99v1.444c0 .284.217.515.484.515h2.733c-.128 0-.251-.054-.342-.151s-.142-.228-.142-.364z" style="fill:var(--color121, #fc5479)"/><path fill="#13ace8" d="M26.938 29.434V27.99c0-1.529.864-2.907 2.19-3.495a3.365 3.365 0 0 0-1.366-.29c-1.964 0-3.557 1.695-3.557 3.785v1.444c0 .284.217.515.484.515h2.733c-.128 0-.251-.054-.342-.151s-.142-.228-.142-.364z" style="fill:var(--color123, #13ace8)"/><path fill="#fad393" d="M4.367 6.76c-1.279 0-2.316-1.054-2.316-2.354s1.037-2.354 2.316-2.354 2.316 1.054 2.316 2.354c-.001 1.3-1.037 2.353-2.316 2.354zM27.513 6.76c-1.279 0-2.316-1.054-2.316-2.354s1.037-2.354 2.316-2.354 2.316 1.054 2.316 2.354c-.001 1.3-1.037 2.353-2.316 2.354zM4.367 26.166c-1.279 0-2.316-1.054-2.316-2.354s1.037-2.354 2.316-2.354 2.316 1.054 2.316 2.354c-.001 1.3-1.037 2.353-2.316 2.354zM27.513 26.166c-1.279 0-2.316-1.054-2.316-2.354s1.037-2.354 2.316-2.354 2.316 1.054 2.316 2.354c-.001 1.3-1.037 2.353-2.316 2.354z" style="fill:var(--color127, #fad393)"/><path fill="#edb769" d="M4.406 4.53a2.344 2.344 0 0 1 1.236-2.063 2.341 2.341 0 1 0 0 4.127 2.34 2.34 0 0 1-1.236-2.063zM27.827 4.53a2.344 2.344 0 0 1 1.236-2.063 2.341 2.341 0 1 0 0 4.127 2.34 2.34 0 0 1-1.236-2.063zM4.406 23.828a2.344 2.344 0 0 1 1.236-2.063 2.341 2.341 0 1 0 0 4.125 2.34 2.34 0 0 1-1.236-2.063zM27.827 23.828a2.344 2.344 0 0 1 1.236-2.063 2.341 2.341 0 1 0 0 4.125 2.34 2.34 0 0 1-1.236-2.063z" style="fill:var(--color128, #edb769)"/><path d="M8.359 3.282c.1 0 .197-.027.283-.078a16.129 16.129 0 0 1 1.684-.868c.286-.127.418-.466.294-.758s-.457-.426-.743-.3c-.618.273-1.219.583-1.802.928-.22.131-.327.397-.261.648s.29.426.545.427v.001zM18.472 1.167c.593.112 1.18.263 1.757.45.185.06.385.008.526-.137s.199-.361.154-.566a.571.571 0 0 0-.372-.428c-.617-.2-1.245-.361-1.879-.481-.286-.038-.548.175-.598.484s.132.607.413.676v.002zM15.298.821h.032a20.833 20.833 0 0 1 1.756-.002c.188.008.366-.061.469-.18s.114-.271.029-.398-.252-.211-.44-.219a19.721 19.721 0 0 0-1.875 0c-.286.011-.508.193-.5.41s.244.389.53.387l-.001.001zM31.13 11.503c-.253.069-.408.355-.348.64.122.576.213 1.159.275 1.747.028.267.229.469.468.469a.377.377 0 0 0 .058-.004c.258-.034.443-.297.414-.588a18.3 18.3 0 0 0-.294-1.869c-.029-.138-.105-.258-.213-.332s-.237-.097-.36-.063zM30.392 21.018c-.067.181-.031.384.095.532s.323.218.516.185a.547.547 0 0 0 .42-.348c.224-.606.411-1.224.562-1.851.07-.29-.113-.581-.408-.65s-.59.111-.66.402a15.464 15.464 0 0 1-.525 1.731zM22.085 2.339c.577.255 1.14.544 1.685.865.27.159.615.064.77-.213s.063-.631-.207-.79a17.11 17.11 0 0 0-1.803-.924c-.185-.082-.399-.056-.56.068s-.246.326-.223.532.152.382.338.463v-.001zM.83 18.887a.54.54 0 0 0-.404.651c.151.627.339 1.245.563 1.851.104.28.419.425.703.322s.431-.413.327-.693a15.295 15.295 0 0 1-.526-1.728c-.033-.14-.122-.262-.246-.337s-.274-.099-.416-.065zM11.615 1.64a.52.52 0 0 0 .156-.025c.576-.188 1.161-.34 1.753-.453.283-.067.467-.365.417-.676s-.318-.522-.605-.479c-.633.122-1.26.284-1.876.485-.256.084-.416.36-.378.648s.265.502.533.502l-.001-.001zM31.85 15.18c-.309 0-.559.233-.559.521v.033c0 .581-.036 1.161-.107 1.738-.023.185.062.367.222.478s.373.134.556.06a.526.526 0 0 0 .334-.418c.076-.616.115-1.236.115-1.857v-.033c0-.288-.251-.521-.56-.521zM18.646 30.779c-.575.099-1.155.165-1.738.198-.284.014-.506.247-.498.526s.242.5.527.498h.031a16.53 16.53 0 0 0 1.858-.211c.191-.025.352-.149.421-.325s.033-.374-.093-.517a.53.53 0 0 0-.509-.166v-.003zM15.083 30.978a15.486 15.486 0 0 1-1.731-.196c-.187-.041-.382.023-.508.166s-.161.342-.092.518a.52.52 0 0 0 .42.325c.612.105 1.23.175 1.851.209h.03c.288.008.528-.215.536-.498s-.219-.519-.507-.527l.001.003zM11.507 30.327a14.204 14.204 0 0 1-1.718-.736c-.277-.141-.599.01-.719.337s.008.706.286.847c.599.304 1.213.567 1.838.787.187.066.39.009.532-.149s.202-.394.156-.618a.611.611 0 0 0-.376-.469zM.833 14.356c.125.016.251-.024.35-.113s.162-.217.176-.358c.06-.592.151-1.179.272-1.758.05-.283-.108-.559-.358-.625s-.501.103-.568.381a18.25 18.25 0 0 0-.292 1.881c-.014.141.022.283.1.394s.194.182.319.198zM22.21 29.595c-.56.284-1.133.53-1.717.735-.187.066-.33.244-.376.468s.015.459.157.616a.49.49 0 0 0 .533.148 15.122 15.122 0 0 0 1.838-.791c.179-.091.304-.288.326-.516s-.06-.453-.217-.59a.48.48 0 0 0-.543-.074v.003zM.737 18.048c.306-.034.526-.294.491-.583a14.572 14.572 0 0 1-.109-1.759c0-.291-.25-.527-.559-.527-.148 0-.291.055-.396.154S0 15.566 0 15.706c.001.628.04 1.255.117 1.879a.548.548 0 0 0 .619.463zM7.513 10.667H1.515A1.117 1.117 0 0 1 .41 9.543V8.266c0-1.179.532-2.293 1.442-3.02-.408-1.389.291-2.867 1.612-3.404s2.825.043 3.466 1.338c.641 1.295.207 2.875-1.001 3.64s-2.788.463-3.642-.696a2.908 2.908 0 0 0-.939 2.143v1.276c0 .094.074.17.166.17h5.998a.169.169 0 0 0 .167-.17V8.268c0-.316-.051-.63-.151-.93-.058-.163-.026-.345.085-.476a.463.463 0 0 1 .802.168c.133.398.201.816.2 1.237v1.276a1.115 1.115 0 0 1-1.102 1.124zM6.293 4.44c0-1.02-.811-1.847-1.81-1.847v-.001c-1 .001-1.81.828-1.81 1.848s.811 1.847 1.81 1.847 1.81-.827 1.81-1.847zM23.385 9.541V8.265a3.863 3.863 0 0 1 1.442-3.015c-.412-1.388.285-2.867 1.604-3.407s2.825.037 3.469 1.331c.644 1.293.212 2.874-.995 3.641s-2.788.467-3.644-.691a2.908 2.908 0 0 0-.939 2.142v1.276c0 .094.075.17.167.17h5.998c.044 0 .087-.018.118-.05s.049-.075.049-.12V8.268c0-.316-.051-.63-.151-.929-.058-.163-.026-.345.085-.476a.463.463 0 0 1 .802.168c.133.398.201.816.2 1.236v1.276a1.116 1.116 0 0 1-1.103 1.125h-5.998a1.115 1.115 0 0 1-1.103-1.125zm5.743-5.806a1.81 1.81 0 0 0-1.673-1.14v.001c-.999.001-1.809.827-1.81 1.846 0 .747.441 1.42 1.118 1.706s1.455.128 1.973-.4a1.87 1.87 0 0 0 .392-2.012zM30.525 26.664a.464.464 0 0 1 .863.059c.133.398.201.816.2 1.236v1.276a1.115 1.115 0 0 1-1.103 1.125h-5.998a1.115 1.115 0 0 1-1.103-1.125v-1.276a3.864 3.864 0 0 1 1.441-3.016c-.412-1.388.285-2.867 1.605-3.407s2.825.037 3.469 1.331c.643 1.293.212 2.874-.995 3.641s-2.788.467-3.644-.691a2.908 2.908 0 0 0-.939 2.142v1.276c0 .045.018.088.049.12s.074.05.118.05h5.998c.044 0 .087-.018.118-.05s.049-.075.049-.12v-1.276c0-.316-.051-.63-.151-.929a.486.486 0 0 1 .023-.365zm-1.258-2.53c0-1.02-.811-1.846-1.81-1.846-.999.001-1.809.827-1.81 1.846 0 1.02.811 1.846 1.81 1.846s1.81-.827 1.81-1.846zM7.55 26.661a.46.46 0 0 1 .629-.218.473.473 0 0 1 .236.277c.133.398.201.816.2 1.237v1.276a1.117 1.117 0 0 1-1.103 1.126H1.515c-.293 0-.574-.119-.781-.33s-.323-.498-.323-.797v-1.276a3.866 3.866 0 0 1 1.441-3.017c-.411-1.387.285-2.864 1.603-3.404s2.821.038 3.464 1.33c.643 1.292.211 2.871-.994 3.638s-2.784.467-3.639-.69a2.908 2.908 0 0 0-.939 2.143v1.276c0 .045.018.088.049.12s.074.05.118.05h5.997c.044 0 .087-.018.118-.05s.049-.075.049-.12v-1.276c0-.316-.051-.63-.151-.93a.486.486 0 0 1 .023-.365zM6.292 24.13c0-1.02-.81-1.847-1.81-1.847-.999.001-1.809.827-1.81 1.847 0 1.02.81 1.847 1.81 1.847s1.81-.827 1.81-1.847zM15.52 10.668l5.076-.001c2.079.001 3.878 1.462 4.325 3.513s-.576 4.142-2.462 5.026c-.737 1.825-3.148 2.703-3.254 2.741-.181.064-.382.012-.511-.131s-.161-.351-.08-.527c.254-.52.398-1.087.424-1.666h-.76a3.598 3.598 0 0 1-3.299 2.257h-2.668c.033.428.143.846.325 1.233.08.177.046.385-.085.528s-.333.192-.514.125c-.085-.031-1.998-.751-2.611-2.252a3.732 3.732 0 0 1-2.042-3.368c-.026-2.032 1.581-3.702 3.592-3.733h.173c.357-2.159 2.204-3.742 4.37-3.745zm6.114 8.025a.475.475 0 0 1 .273-.293h-.001a3.5 3.5 0 0 0 2.172-3.236c-.026-1.954-1.6-3.524-3.534-3.523H15.57c-1.901-.01-3.464 1.513-3.523 3.434-.011.473.074.942.249 1.381a.482.482 0 0 1-.103.518l-.007.007a.47.47 0 0 1-.775-.162 4.495 4.495 0 0 1-.313-1.434h-.119c-1.484.031-2.663 1.268-2.638 2.768a2.765 2.765 0 0 0 1.652 2.565.496.496 0 0 1 .275.312 2.722 2.722 0 0 0 1.14 1.328 3.66 3.66 0 0 1-.033-1.013.478.478 0 0 1 .474-.426h3.134a2.612 2.612 0 0 0 2.23-1.292h-1.692a4.345 4.345 0 0 1-1.657-.329.478.478 0 0 1-.159-.782l.006-.007a.472.472 0 0 1 .515-.104c.411.168.851.254 1.294.253h3.976a.481.481 0 0 1 .475.432c.052.492.02.99-.094 1.472a3.73 3.73 0 0 0 1.757-1.868z" style="fill:var(--color19, #000)"/></symbol></defs></svg>